<svg width="754" height="180" viewBox="0 0 754 180" fill="none" xmlns="http://www.w3.org/2000/svg">
<g filter="url(#filter0_dd_1_6)">
<path d="M117.52 55.6222H99.7642C99.5275 53.7992 99.0421 52.1539 98.3082 50.6861C97.5743 49.2183 96.6037 47.9635 95.3963 46.9219C94.1889 45.8802 92.7566 45.0871 91.0994 44.5426C89.4659 43.9744 87.6548 43.6903 85.6662 43.6903C82.1387 43.6903 79.0966 44.5544 76.5398 46.2827C74.0066 48.0109 72.0535 50.5085 70.6804 53.7756C69.331 57.0426 68.6562 60.9962 68.6562 65.6364C68.6562 70.4659 69.3428 74.5142 70.7159 77.7812C72.1127 81.0246 74.0658 83.4749 76.5753 85.1321C79.1084 86.7656 82.1032 87.5824 85.5597 87.5824C87.5009 87.5824 89.2647 87.3338 90.8509 86.8366C92.4607 86.3395 93.8693 85.6174 95.0767 84.6705C96.3078 83.6998 97.3139 82.5279 98.0952 81.1548C98.9001 79.758 99.4564 78.1837 99.7642 76.4318L117.52 76.5384C117.212 79.758 116.277 82.9304 114.714 86.0554C113.176 89.1804 111.057 92.0331 108.358 94.6136C105.659 97.1705 102.368 99.2064 98.4858 100.722C94.6269 102.237 90.1998 102.994 85.2045 102.994C78.6231 102.994 72.7282 101.55 67.5199 98.6619C62.3352 95.75 58.2396 91.5123 55.233 85.9489C52.2263 80.3854 50.723 73.6146 50.723 65.6364C50.723 57.6345 52.25 50.8518 55.304 45.2884C58.358 39.7249 62.4891 35.4991 67.6974 32.6108C72.9058 29.7225 78.7415 28.2784 85.2045 28.2784C89.608 28.2784 93.6799 28.8939 97.4205 30.125C101.161 31.3324 104.452 33.108 107.293 35.4517C110.134 37.7718 112.442 40.6245 114.217 44.0099C115.993 47.3954 117.094 51.2661 117.52 55.6222ZM153.04 103.03C147.311 103.03 142.387 101.858 138.267 99.5142C134.172 97.1468 131.011 93.8561 128.786 89.642C126.584 85.4044 125.483 80.492 125.483 74.9048C125.483 69.294 126.584 64.3816 128.786 60.1676C131.011 55.9299 134.172 52.6392 138.267 50.2955C142.387 47.928 147.311 46.7443 153.04 46.7443C158.769 46.7443 163.682 47.928 167.777 50.2955C171.897 52.6392 175.057 55.9299 177.259 60.1676C179.484 64.3816 180.597 69.294 180.597 74.9048C180.597 80.492 179.484 85.4044 177.259 89.642C175.057 93.8561 171.897 97.1468 167.777 99.5142C163.682 101.858 158.769 103.03 153.04 103.03ZM153.147 89.9261C155.23 89.9261 156.994 89.2869 158.438 88.0085C159.882 86.7301 160.983 84.9545 161.74 82.6818C162.522 80.4091 162.912 77.7812 162.912 74.7983C162.912 71.768 162.522 69.1165 161.74 66.8438C160.983 64.571 159.882 62.7955 158.438 61.517C156.994 60.2386 155.23 59.5994 153.147 59.5994C150.992 59.5994 149.169 60.2386 147.678 61.517C146.21 62.7955 145.086 64.571 144.304 66.8438C143.547 69.1165 143.168 71.768 143.168 74.7983C143.168 77.7812 143.547 80.4091 144.304 82.6818C145.086 84.9545 146.21 86.7301 147.678 88.0085C149.169 89.2869 150.992 89.9261 153.147 89.9261ZM206.858 29.2727V102H189.493V29.2727H206.858ZM243.372 103.03C237.643 103.03 232.719 101.858 228.599 99.5142C224.504 97.1468 221.343 93.8561 219.118 89.642C216.916 85.4044 215.815 80.492 215.815 74.9048C215.815 69.294 216.916 64.3816 219.118 60.1676C221.343 55.9299 224.504 52.6392 228.599 50.2955C232.719 47.928 237.643 46.7443 243.372 46.7443C249.101 46.7443 254.014 47.928 258.109 50.2955C262.229 52.6392 265.389 55.9299 267.591 60.1676C269.816 64.3816 270.929 69.294 270.929 74.9048C270.929 80.492 269.816 85.4044 267.591 89.642C265.389 93.8561 262.229 97.1468 258.109 99.5142C254.014 101.858 249.101 103.03 243.372 103.03ZM243.479 89.9261C245.562 89.9261 247.326 89.2869 248.77 88.0085C250.214 86.7301 251.315 84.9545 252.072 82.6818C252.854 80.4091 253.244 77.7812 253.244 74.7983C253.244 71.768 252.854 69.1165 252.072 66.8438C251.315 64.571 250.214 62.7955 248.77 61.517C247.326 60.2386 245.562 59.5994 243.479 59.5994C241.324 59.5994 239.501 60.2386 238.01 61.517C236.542 62.7955 235.418 64.571 234.636 66.8438C233.879 69.1165 233.5 71.768 233.5 74.7983C233.5 77.7812 233.879 80.4091 234.636 82.6818C235.418 84.9545 236.542 86.7301 238.01 88.0085C239.501 89.2869 241.324 89.9261 243.479 89.9261ZM279.825 102V47.4545H296.692V57.3977H297.261C298.255 53.7992 299.877 51.1241 302.126 49.3722C304.375 47.5966 306.991 46.7088 309.974 46.7088C310.779 46.7088 311.607 46.768 312.46 46.8864C313.312 46.9811 314.105 47.1349 314.839 47.348V62.4403C314.01 62.1562 312.921 61.9313 311.572 61.7656C310.246 61.5999 309.062 61.517 308.021 61.517C305.961 61.517 304.103 61.9787 302.445 62.902C300.812 63.8016 299.522 65.0682 298.575 66.7017C297.651 68.3116 297.19 70.2055 297.19 72.3835V102H279.825ZM361.225 51.0767C360.989 48.4725 359.935 46.4484 358.065 45.0043C356.218 43.5365 353.579 42.8026 350.146 42.8026C347.873 42.8026 345.979 43.0985 344.464 43.6903C342.949 44.2822 341.813 45.099 341.055 46.1406C340.297 47.1586 339.907 48.3305 339.883 49.6562C339.836 50.7453 340.049 51.7041 340.522 52.5327C341.02 53.3613 341.73 54.0952 342.653 54.7344C343.6 55.3499 344.736 55.8944 346.062 56.3679C347.388 56.8414 348.879 57.2557 350.537 57.6108L356.787 59.0312C360.385 59.8125 363.557 60.8542 366.304 62.1562C369.074 63.4583 371.394 65.009 373.264 66.8082C375.158 68.6075 376.59 70.679 377.561 73.0227C378.531 75.3665 379.029 77.9943 379.052 80.9062C379.029 85.4991 377.868 89.4408 375.572 92.7315C373.276 96.0223 369.973 98.5436 365.664 100.295C361.379 102.047 356.207 102.923 350.146 102.923C344.062 102.923 338.759 102.012 334.237 100.189C329.715 98.366 326.199 95.5961 323.69 91.8793C321.181 88.1624 319.89 83.4631 319.819 77.7812H336.652C336.794 80.125 337.421 82.0781 338.534 83.6406C339.646 85.2031 341.173 86.3868 343.115 87.1918C345.08 87.9967 347.352 88.3991 349.933 88.3991C352.3 88.3991 354.313 88.0795 355.97 87.4403C357.651 86.8011 358.941 85.9134 359.841 84.777C360.74 83.6406 361.202 82.3385 361.225 80.8707C361.202 79.4976 360.776 78.3258 359.947 77.3551C359.118 76.3608 357.84 75.5085 356.112 74.7983C354.407 74.0644 352.229 73.3897 349.578 72.7741L341.978 70.9986C335.681 69.5544 330.721 67.2225 327.099 64.0028C323.477 60.7595 321.678 56.3797 321.701 50.8636C321.678 46.3655 322.885 42.4238 325.324 39.0384C327.762 35.6529 331.136 33.0133 335.444 31.1193C339.753 29.2254 344.665 28.2784 350.181 28.2784C355.816 28.2784 360.705 29.2372 364.848 31.1548C369.014 33.0488 372.246 35.7121 374.542 39.1449C376.839 42.5777 378.011 46.5549 378.058 51.0767H361.225ZM418.718 47.4545V60.2386H384.308V47.4545H418.718ZM391.517 34.3864H408.882V84.848C408.882 85.9134 409.047 86.7775 409.379 87.4403C409.734 88.0795 410.243 88.5412 410.906 88.8253C411.569 89.0857 412.362 89.2159 413.285 89.2159C413.948 89.2159 414.646 89.1567 415.38 89.0384C416.138 88.8963 416.706 88.7779 417.085 88.6832L419.713 101.219C418.884 101.455 417.712 101.751 416.197 102.107C414.706 102.462 412.918 102.687 410.835 102.781C406.763 102.971 403.271 102.497 400.359 101.361C397.471 100.201 395.257 98.4015 393.718 95.9631C392.203 93.5246 391.469 90.4588 391.517 86.7656V34.3864ZM452.454 103.03C446.725 103.03 441.801 101.858 437.681 99.5142C433.586 97.1468 430.425 93.8561 428.2 89.642C425.998 85.4044 424.897 80.492 424.897 74.9048C424.897 69.294 425.998 64.3816 428.2 60.1676C430.425 55.9299 433.586 52.6392 437.681 50.2955C441.801 47.928 446.725 46.7443 452.454 46.7443C458.183 46.7443 463.096 47.928 467.191 50.2955C471.311 52.6392 474.471 55.9299 476.673 60.1676C478.898 64.3816 480.011 69.294 480.011 74.9048C480.011 80.492 478.898 85.4044 476.673 89.642C474.471 93.8561 471.311 97.1468 467.191 99.5142C463.096 101.858 458.183 103.03 452.454 103.03ZM452.561 89.9261C454.644 89.9261 456.408 89.2869 457.852 88.0085C459.296 86.7301 460.397 84.9545 461.154 82.6818C461.936 80.4091 462.326 77.7812 462.326 74.7983C462.326 71.768 461.936 69.1165 461.154 66.8438C460.397 64.571 459.296 62.7955 457.852 61.517C456.408 60.2386 454.644 59.5994 452.561 59.5994C450.406 59.5994 448.583 60.2386 447.092 61.517C445.624 62.7955 444.5 64.571 443.718 66.8438C442.961 69.1165 442.582 71.768 442.582 74.7983C442.582 77.7812 442.961 80.4091 443.718 82.6818C444.5 84.9545 445.624 86.7301 447.092 88.0085C448.583 89.2869 450.406 89.9261 452.561 89.9261ZM488.907 102V47.4545H505.775V57.3977H506.343C507.337 53.7992 508.959 51.1241 511.208 49.3722C513.457 47.5966 516.073 46.7088 519.056 46.7088C519.861 46.7088 520.689 46.768 521.542 46.8864C522.394 46.9811 523.187 47.1349 523.921 47.348V62.4403C523.092 62.1562 522.003 61.9313 520.654 61.7656C519.328 61.5999 518.144 61.517 517.103 61.517C515.043 61.517 513.185 61.9787 511.527 62.902C509.894 63.8016 508.604 65.0682 507.657 66.7017C506.733 68.3116 506.272 70.2055 506.272 72.3835V102H488.907ZM544.322 102.923C540.842 102.923 537.752 102.343 535.054 101.183C532.378 99.9995 530.26 98.224 528.697 95.8565C527.158 93.4654 526.389 90.4706 526.389 86.8722C526.389 83.8419 526.922 81.285 527.987 79.2017C529.052 77.1184 530.52 75.4257 532.39 74.1236C534.261 72.8215 536.415 71.839 538.853 71.1761C541.292 70.4896 543.896 70.0279 546.666 69.7912C549.767 69.5071 552.265 69.2112 554.159 68.9034C556.053 68.572 557.426 68.1103 558.278 67.5185C559.154 66.9029 559.592 66.0388 559.592 64.9261V64.7486C559.592 62.9257 558.965 61.517 557.71 60.5227C556.455 59.5284 554.762 59.0312 552.632 59.0312C550.335 59.0312 548.489 59.5284 547.092 60.5227C545.695 61.517 544.807 62.8902 544.429 64.642L528.413 64.0739C528.886 60.7595 530.106 57.8002 532.071 55.196C534.059 52.5682 536.782 50.5085 540.238 49.017C543.718 47.5019 547.897 46.7443 552.774 46.7443C556.254 46.7443 559.462 47.1586 562.397 47.9872C565.333 48.7921 567.89 49.9759 570.068 51.5384C572.246 53.0772 573.927 54.9711 575.11 57.2202C576.318 59.4692 576.922 62.0379 576.922 64.9261V102H560.586V94.4006H560.16C559.19 96.2472 557.947 97.8097 556.431 99.0881C554.94 100.366 553.176 101.325 551.14 101.964C549.128 102.604 546.855 102.923 544.322 102.923ZM549.684 91.5597C551.555 91.5597 553.235 91.1809 554.727 90.4233C556.242 89.6657 557.449 88.6241 558.349 87.2983C559.249 85.9489 559.699 84.3864 559.699 82.6108V77.4261C559.201 77.6866 558.598 77.9233 557.887 78.1364C557.201 78.3494 556.443 78.5507 555.615 78.7401C554.786 78.9295 553.934 79.0952 553.058 79.2372C552.182 79.3793 551.342 79.5095 550.537 79.6278C548.903 79.8883 547.506 80.2907 546.346 80.8352C545.21 81.3797 544.334 82.09 543.718 82.9659C543.127 83.8182 542.831 84.8362 542.831 86.0199C542.831 87.8191 543.47 89.1922 544.748 90.1392C546.05 91.0862 547.696 91.5597 549.684 91.5597ZM612.966 123.591C607.781 123.591 603.342 122.869 599.649 121.425C595.956 119.981 593.056 118.004 590.949 115.494C588.842 112.985 587.575 110.144 587.149 106.972L603.591 106.048C603.898 107.161 604.467 108.132 605.295 108.96C606.147 109.789 607.248 110.428 608.598 110.878C609.971 111.328 611.581 111.553 613.427 111.553C616.339 111.553 618.742 110.842 620.636 109.422C622.554 108.025 623.512 105.575 623.512 102.071V92.483H622.909C622.222 94.1638 621.181 95.6671 619.784 96.9929C618.387 98.3187 616.647 99.3603 614.564 100.118C612.504 100.875 610.136 101.254 607.461 101.254C603.484 101.254 599.838 100.331 596.524 98.4844C593.233 96.6141 590.593 93.7259 588.605 89.8196C586.64 85.8897 585.657 80.8352 585.657 74.6562C585.657 68.2879 586.675 63.044 588.711 58.9247C590.747 54.7817 593.411 51.7159 596.701 49.7273C600.016 47.7386 603.579 46.7443 607.39 46.7443C610.255 46.7443 612.705 47.2415 614.741 48.2358C616.801 49.2064 618.493 50.4612 619.819 52C621.145 53.5388 622.151 55.1368 622.838 56.794H623.335V47.4545H640.629V102.213C640.629 106.83 639.469 110.724 637.149 113.896C634.829 117.069 631.585 119.472 627.419 121.105C623.252 122.762 618.434 123.591 612.966 123.591ZM613.498 88.6122C615.605 88.6122 617.404 88.0559 618.896 86.9432C620.387 85.8305 621.536 84.2325 622.341 82.1491C623.145 80.0658 623.548 77.5682 623.548 74.6562C623.548 71.697 623.145 69.152 622.341 67.0213C621.559 64.867 620.411 63.2098 618.896 62.0497C617.404 60.8897 615.605 60.3097 613.498 60.3097C611.344 60.3097 609.521 60.9015 608.029 62.0852C606.538 63.2689 605.402 64.938 604.62 67.0923C603.863 69.223 603.484 71.7443 603.484 74.6562C603.484 77.5682 603.875 80.0658 604.656 82.1491C605.437 84.2325 606.562 85.8305 608.029 86.9432C609.521 88.0559 611.344 88.6122 613.498 88.6122ZM677.197 103.03C671.491 103.03 666.567 101.905 662.424 99.6562C658.305 97.3835 655.132 94.152 652.907 89.9616C650.705 85.7476 649.604 80.7405 649.604 74.9403C649.604 69.3059 650.717 64.3816 652.942 60.1676C655.168 55.9299 658.305 52.6392 662.353 50.2955C666.401 47.928 671.172 46.7443 676.664 46.7443C680.547 46.7443 684.098 47.348 687.317 48.5554C690.537 49.7628 693.319 51.5502 695.663 53.9176C698.006 56.285 699.829 59.2088 701.131 62.6889C702.433 66.1454 703.085 70.1108 703.085 74.5852V78.9176H655.677V68.8324H686.927C686.903 66.9858 686.465 65.3404 685.613 63.8963C684.761 62.4522 683.589 61.3277 682.097 60.5227C680.629 59.6941 678.937 59.2798 677.019 59.2798C675.078 59.2798 673.338 59.7178 671.799 60.5938C670.26 61.446 669.041 62.6179 668.141 64.1094C667.242 65.5772 666.768 67.2462 666.721 69.1165V79.3793C666.721 81.6046 667.159 83.5578 668.035 85.2386C668.911 86.8958 670.154 88.1861 671.763 89.1094C673.373 90.0327 675.291 90.4943 677.516 90.4943C679.055 90.4943 680.452 90.2812 681.707 89.8551C682.961 89.429 684.039 88.8016 684.938 87.973C685.838 87.1444 686.513 86.1264 686.962 84.919L702.907 85.3807C702.244 88.9555 700.788 92.0687 698.539 94.7202C696.314 97.348 693.39 99.3958 689.768 100.864C686.146 102.308 681.955 103.03 677.197 103.03Z" fill="url(#paint0_linear_1_6)" shape-rendering="crispEdges"/>
<path d="M117.52 55.6222H99.7642C99.5275 53.7992 99.0421 52.1539 98.3082 50.6861C97.5743 49.2183 96.6037 47.9635 95.3963 46.9219C94.1889 45.8802 92.7566 45.0871 91.0994 44.5426C89.4659 43.9744 87.6548 43.6903 85.6662 43.6903C82.1387 43.6903 79.0966 44.5544 76.5398 46.2827C74.0066 48.0109 72.0535 50.5085 70.6804 53.7756C69.331 57.0426 68.6562 60.9962 68.6562 65.6364C68.6562 70.4659 69.3428 74.5142 70.7159 77.7812C72.1127 81.0246 74.0658 83.4749 76.5753 85.1321C79.1084 86.7656 82.1032 87.5824 85.5597 87.5824C87.5009 87.5824 89.2647 87.3338 90.8509 86.8366C92.4607 86.3395 93.8693 85.6174 95.0767 84.6705C96.3078 83.6998 97.3139 82.5279 98.0952 81.1548C98.9001 79.758 99.4564 78.1837 99.7642 76.4318L117.52 76.5384C117.212 79.758 116.277 82.9304 114.714 86.0554C113.176 89.1804 111.057 92.0331 108.358 94.6136C105.659 97.1705 102.368 99.2064 98.4858 100.722C94.6269 102.237 90.1998 102.994 85.2045 102.994C78.6231 102.994 72.7282 101.55 67.5199 98.6619C62.3352 95.75 58.2396 91.5123 55.233 85.9489C52.2263 80.3854 50.723 73.6146 50.723 65.6364C50.723 57.6345 52.25 50.8518 55.304 45.2884C58.358 39.7249 62.4891 35.4991 67.6974 32.6108C72.9058 29.7225 78.7415 28.2784 85.2045 28.2784C89.608 28.2784 93.6799 28.8939 97.4205 30.125C101.161 31.3324 104.452 33.108 107.293 35.4517C110.134 37.7718 112.442 40.6245 114.217 44.0099C115.993 47.3954 117.094 51.2661 117.52 55.6222ZM153.04 103.03C147.311 103.03 142.387 101.858 138.267 99.5142C134.172 97.1468 131.011 93.8561 128.786 89.642C126.584 85.4044 125.483 80.492 125.483 74.9048C125.483 69.294 126.584 64.3816 128.786 60.1676C131.011 55.9299 134.172 52.6392 138.267 50.2955C142.387 47.928 147.311 46.7443 153.04 46.7443C158.769 46.7443 163.682 47.928 167.777 50.2955C171.897 52.6392 175.057 55.9299 177.259 60.1676C179.484 64.3816 180.597 69.294 180.597 74.9048C180.597 80.492 179.484 85.4044 177.259 89.642C175.057 93.8561 171.897 97.1468 167.777 99.5142C163.682 101.858 158.769 103.03 153.04 103.03ZM153.147 89.9261C155.23 89.9261 156.994 89.2869 158.438 88.0085C159.882 86.7301 160.983 84.9545 161.74 82.6818C162.522 80.4091 162.912 77.7812 162.912 74.7983C162.912 71.768 162.522 69.1165 161.74 66.8438C160.983 64.571 159.882 62.7955 158.438 61.517C156.994 60.2386 155.23 59.5994 153.147 59.5994C150.992 59.5994 149.169 60.2386 147.678 61.517C146.21 62.7955 145.086 64.571 144.304 66.8438C143.547 69.1165 143.168 71.768 143.168 74.7983C143.168 77.7812 143.547 80.4091 144.304 82.6818C145.086 84.9545 146.21 86.7301 147.678 88.0085C149.169 89.2869 150.992 89.9261 153.147 89.9261ZM206.858 29.2727V102H189.493V29.2727H206.858ZM243.372 103.03C237.643 103.03 232.719 101.858 228.599 99.5142C224.504 97.1468 221.343 93.8561 219.118 89.642C216.916 85.4044 215.815 80.492 215.815 74.9048C215.815 69.294 216.916 64.3816 219.118 60.1676C221.343 55.9299 224.504 52.6392 228.599 50.2955C232.719 47.928 237.643 46.7443 243.372 46.7443C249.101 46.7443 254.014 47.928 258.109 50.2955C262.229 52.6392 265.389 55.9299 267.591 60.1676C269.816 64.3816 270.929 69.294 270.929 74.9048C270.929 80.492 269.816 85.4044 267.591 89.642C265.389 93.8561 262.229 97.1468 258.109 99.5142C254.014 101.858 249.101 103.03 243.372 103.03ZM243.479 89.9261C245.562 89.9261 247.326 89.2869 248.77 88.0085C250.214 86.7301 251.315 84.9545 252.072 82.6818C252.854 80.4091 253.244 77.7812 253.244 74.7983C253.244 71.768 252.854 69.1165 252.072 66.8438C251.315 64.571 250.214 62.7955 248.77 61.517C247.326 60.2386 245.562 59.5994 243.479 59.5994C241.324 59.5994 239.501 60.2386 238.01 61.517C236.542 62.7955 235.418 64.571 234.636 66.8438C233.879 69.1165 233.5 71.768 233.5 74.7983C233.5 77.7812 233.879 80.4091 234.636 82.6818C235.418 84.9545 236.542 86.7301 238.01 88.0085C239.501 89.2869 241.324 89.9261 243.479 89.9261ZM279.825 102V47.4545H296.692V57.3977H297.261C298.255 53.7992 299.877 51.1241 302.126 49.3722C304.375 47.5966 306.991 46.7088 309.974 46.7088C310.779 46.7088 311.607 46.768 312.46 46.8864C313.312 46.9811 314.105 47.1349 314.839 47.348V62.4403C314.01 62.1562 312.921 61.9313 311.572 61.7656C310.246 61.5999 309.062 61.517 308.021 61.517C305.961 61.517 304.103 61.9787 302.445 62.902C300.812 63.8016 299.522 65.0682 298.575 66.7017C297.651 68.3116 297.19 70.2055 297.19 72.3835V102H279.825ZM361.225 51.0767C360.989 48.4725 359.935 46.4484 358.065 45.0043C356.218 43.5365 353.579 42.8026 350.146 42.8026C347.873 42.8026 345.979 43.0985 344.464 43.6903C342.949 44.2822 341.813 45.099 341.055 46.1406C340.297 47.1586 339.907 48.3305 339.883 49.6562C339.836 50.7453 340.049 51.7041 340.522 52.5327C341.02 53.3613 341.73 54.0952 342.653 54.7344C343.6 55.3499 344.736 55.8944 346.062 56.3679C347.388 56.8414 348.879 57.2557 350.537 57.6108L356.787 59.0312C360.385 59.8125 363.557 60.8542 366.304 62.1562C369.074 63.4583 371.394 65.009 373.264 66.8082C375.158 68.6075 376.59 70.679 377.561 73.0227C378.531 75.3665 379.029 77.9943 379.052 80.9062C379.029 85.4991 377.868 89.4408 375.572 92.7315C373.276 96.0223 369.973 98.5436 365.664 100.295C361.379 102.047 356.207 102.923 350.146 102.923C344.062 102.923 338.759 102.012 334.237 100.189C329.715 98.366 326.199 95.5961 323.69 91.8793C321.181 88.1624 319.89 83.4631 319.819 77.7812H336.652C336.794 80.125 337.421 82.0781 338.534 83.6406C339.646 85.2031 341.173 86.3868 343.115 87.1918C345.08 87.9967 347.352 88.3991 349.933 88.3991C352.3 88.3991 354.313 88.0795 355.97 87.4403C357.651 86.8011 358.941 85.9134 359.841 84.777C360.74 83.6406 361.202 82.3385 361.225 80.8707C361.202 79.4976 360.776 78.3258 359.947 77.3551C359.118 76.3608 357.84 75.5085 356.112 74.7983C354.407 74.0644 352.229 73.3897 349.578 72.7741L341.978 70.9986C335.681 69.5544 330.721 67.2225 327.099 64.0028C323.477 60.7595 321.678 56.3797 321.701 50.8636C321.678 46.3655 322.885 42.4238 325.324 39.0384C327.762 35.6529 331.136 33.0133 335.444 31.1193C339.753 29.2254 344.665 28.2784 350.181 28.2784C355.816 28.2784 360.705 29.2372 364.848 31.1548C369.014 33.0488 372.246 35.7121 374.542 39.1449C376.839 42.5777 378.011 46.5549 378.058 51.0767H361.225ZM418.718 47.4545V60.2386H384.308V47.4545H418.718ZM391.517 34.3864H408.882V84.848C408.882 85.9134 409.047 86.7775 409.379 87.4403C409.734 88.0795 410.243 88.5412 410.906 88.8253C411.569 89.0857 412.362 89.2159 413.285 89.2159C413.948 89.2159 414.646 89.1567 415.38 89.0384C416.138 88.8963 416.706 88.7779 417.085 88.6832L419.713 101.219C418.884 101.455 417.712 101.751 416.197 102.107C414.706 102.462 412.918 102.687 410.835 102.781C406.763 102.971 403.271 102.497 400.359 101.361C397.471 100.201 395.257 98.4015 393.718 95.9631C392.203 93.5246 391.469 90.4588 391.517 86.7656V34.3864ZM452.454 103.03C446.725 103.03 441.801 101.858 437.681 99.5142C433.586 97.1468 430.425 93.8561 428.2 89.642C425.998 85.4044 424.897 80.492 424.897 74.9048C424.897 69.294 425.998 64.3816 428.2 60.1676C430.425 55.9299 433.586 52.6392 437.681 50.2955C441.801 47.928 446.725 46.7443 452.454 46.7443C458.183 46.7443 463.096 47.928 467.191 50.2955C471.311 52.6392 474.471 55.9299 476.673 60.1676C478.898 64.3816 480.011 69.294 480.011 74.9048C480.011 80.492 478.898 85.4044 476.673 89.642C474.471 93.8561 471.311 97.1468 467.191 99.5142C463.096 101.858 458.183 103.03 452.454 103.03ZM452.561 89.9261C454.644 89.9261 456.408 89.2869 457.852 88.0085C459.296 86.7301 460.397 84.9545 461.154 82.6818C461.936 80.4091 462.326 77.7812 462.326 74.7983C462.326 71.768 461.936 69.1165 461.154 66.8438C460.397 64.571 459.296 62.7955 457.852 61.517C456.408 60.2386 454.644 59.5994 452.561 59.5994C450.406 59.5994 448.583 60.2386 447.092 61.517C445.624 62.7955 444.5 64.571 443.718 66.8438C442.961 69.1165 442.582 71.768 442.582 74.7983C442.582 77.7812 442.961 80.4091 443.718 82.6818C444.5 84.9545 445.624 86.7301 447.092 88.0085C448.583 89.2869 450.406 89.9261 452.561 89.9261ZM488.907 102V47.4545H505.775V57.3977H506.343C507.337 53.7992 508.959 51.1241 511.208 49.3722C513.457 47.5966 516.073 46.7088 519.056 46.7088C519.861 46.7088 520.689 46.768 521.542 46.8864C522.394 46.9811 523.187 47.1349 523.921 47.348V62.4403C523.092 62.1562 522.003 61.9313 520.654 61.7656C519.328 61.5999 518.144 61.517 517.103 61.517C515.043 61.517 513.185 61.9787 511.527 62.902C509.894 63.8016 508.604 65.0682 507.657 66.7017C506.733 68.3116 506.272 70.2055 506.272 72.3835V102H488.907ZM544.322 102.923C540.842 102.923 537.752 102.343 535.054 101.183C532.378 99.9995 530.26 98.224 528.697 95.8565C527.158 93.4654 526.389 90.4706 526.389 86.8722C526.389 83.8419 526.922 81.285 527.987 79.2017C529.052 77.1184 530.52 75.4257 532.39 74.1236C534.261 72.8215 536.415 71.839 538.853 71.1761C541.292 70.4896 543.896 70.0279 546.666 69.7912C549.767 69.5071 552.265 69.2112 554.159 68.9034C556.053 68.572 557.426 68.1103 558.278 67.5185C559.154 66.9029 559.592 66.0388 559.592 64.9261V64.7486C559.592 62.9257 558.965 61.517 557.71 60.5227C556.455 59.5284 554.762 59.0312 552.632 59.0312C550.335 59.0312 548.489 59.5284 547.092 60.5227C545.695 61.517 544.807 62.8902 544.429 64.642L528.413 64.0739C528.886 60.7595 530.106 57.8002 532.071 55.196C534.059 52.5682 536.782 50.5085 540.238 49.017C543.718 47.5019 547.897 46.7443 552.774 46.7443C556.254 46.7443 559.462 47.1586 562.397 47.9872C565.333 48.7921 567.89 49.9759 570.068 51.5384C572.246 53.0772 573.927 54.9711 575.11 57.2202C576.318 59.4692 576.922 62.0379 576.922 64.9261V102H560.586V94.4006H560.16C559.19 96.2472 557.947 97.8097 556.431 99.0881C554.94 100.366 553.176 101.325 551.14 101.964C549.128 102.604 546.855 102.923 544.322 102.923ZM549.684 91.5597C551.555 91.5597 553.235 91.1809 554.727 90.4233C556.242 89.6657 557.449 88.6241 558.349 87.2983C559.249 85.9489 559.699 84.3864 559.699 82.6108V77.4261C559.201 77.6866 558.598 77.9233 557.887 78.1364C557.201 78.3494 556.443 78.5507 555.615 78.7401C554.786 78.9295 553.934 79.0952 553.058 79.2372C552.182 79.3793 551.342 79.5095 550.537 79.6278C548.903 79.8883 547.506 80.2907 546.346 80.8352C545.21 81.3797 544.334 82.09 543.718 82.9659C543.127 83.8182 542.831 84.8362 542.831 86.0199C542.831 87.8191 543.47 89.1922 544.748 90.1392C546.05 91.0862 547.696 91.5597 549.684 91.5597ZM612.966 123.591C607.781 123.591 603.342 122.869 599.649 121.425C595.956 119.981 593.056 118.004 590.949 115.494C588.842 112.985 587.575 110.144 587.149 106.972L603.591 106.048C603.898 107.161 604.467 108.132 605.295 108.96C606.147 109.789 607.248 110.428 608.598 110.878C609.971 111.328 611.581 111.553 613.427 111.553C616.339 111.553 618.742 110.842 620.636 109.422C622.554 108.025 623.512 105.575 623.512 102.071V92.483H622.909C622.222 94.1638 621.181 95.6671 619.784 96.9929C618.387 98.3187 616.647 99.3603 614.564 100.118C612.504 100.875 610.136 101.254 607.461 101.254C603.484 101.254 599.838 100.331 596.524 98.4844C593.233 96.6141 590.593 93.7259 588.605 89.8196C586.64 85.8897 585.657 80.8352 585.657 74.6562C585.657 68.2879 586.675 63.044 588.711 58.9247C590.747 54.7817 593.411 51.7159 596.701 49.7273C600.016 47.7386 603.579 46.7443 607.39 46.7443C610.255 46.7443 612.705 47.2415 614.741 48.2358C616.801 49.2064 618.493 50.4612 619.819 52C621.145 53.5388 622.151 55.1368 622.838 56.794H623.335V47.4545H640.629V102.213C640.629 106.83 639.469 110.724 637.149 113.896C634.829 117.069 631.585 119.472 627.419 121.105C623.252 122.762 618.434 123.591 612.966 123.591ZM613.498 88.6122C615.605 88.6122 617.404 88.0559 618.896 86.9432C620.387 85.8305 621.536 84.2325 622.341 82.1491C623.145 80.0658 623.548 77.5682 623.548 74.6562C623.548 71.697 623.145 69.152 622.341 67.0213C621.559 64.867 620.411 63.2098 618.896 62.0497C617.404 60.8897 615.605 60.3097 613.498 60.3097C611.344 60.3097 609.521 60.9015 608.029 62.0852C606.538 63.2689 605.402 64.938 604.62 67.0923C603.863 69.223 603.484 71.7443 603.484 74.6562C603.484 77.5682 603.875 80.0658 604.656 82.1491C605.437 84.2325 606.562 85.8305 608.029 86.9432C609.521 88.0559 611.344 88.6122 613.498 88.6122ZM677.197 103.03C671.491 103.03 666.567 101.905 662.424 99.6562C658.305 97.3835 655.132 94.152 652.907 89.9616C650.705 85.7476 649.604 80.7405 649.604 74.9403C649.604 69.3059 650.717 64.3816 652.942 60.1676C655.168 55.9299 658.305 52.6392 662.353 50.2955C666.401 47.928 671.172 46.7443 676.664 46.7443C680.547 46.7443 684.098 47.348 687.317 48.5554C690.537 49.7628 693.319 51.5502 695.663 53.9176C698.006 56.285 699.829 59.2088 701.131 62.6889C702.433 66.1454 703.085 70.1108 703.085 74.5852V78.9176H655.677V68.8324H686.927C686.903 66.9858 686.465 65.3404 685.613 63.8963C684.761 62.4522 683.589 61.3277 682.097 60.5227C680.629 59.6941 678.937 59.2798 677.019 59.2798C675.078 59.2798 673.338 59.7178 671.799 60.5938C670.26 61.446 669.041 62.6179 668.141 64.1094C667.242 65.5772 666.768 67.2462 666.721 69.1165V79.3793C666.721 81.6046 667.159 83.5578 668.035 85.2386C668.911 86.8958 670.154 88.1861 671.763 89.1094C673.373 90.0327 675.291 90.4943 677.516 90.4943C679.055 90.4943 680.452 90.2812 681.707 89.8551C682.961 89.429 684.039 88.8016 684.938 87.973C685.838 87.1444 686.513 86.1264 686.962 84.919L702.907 85.3807C702.244 88.9555 700.788 92.0687 698.539 94.7202C696.314 97.348 693.39 99.3958 689.768 100.864C686.146 102.308 681.955 103.03 677.197 103.03Z" fill="url(#paint1_linear_1_6)" shape-rendering="crispEdges"/>
<path d="M117.52 55.6222V56.6222H118.622L118.515 55.5248L117.52 55.6222ZM99.7642 55.6222L98.7725 55.7509L98.8857 56.6222H99.7642V55.6222ZM98.3082 50.6861L97.4138 51.1333L97.4138 51.1333L98.3082 50.6861ZM95.3963 46.9219L96.0495 46.1647L96.0495 46.1647L95.3963 46.9219ZM91.0994 44.5426L90.7709 45.4871L90.7791 45.4899L90.7873 45.4926L91.0994 44.5426ZM76.5398 46.2827L75.9798 45.4542L75.9762 45.4566L76.5398 46.2827ZM70.6804 53.7756L69.7585 53.3881L69.7561 53.3938L70.6804 53.7756ZM70.7159 77.7812L69.794 78.1687L69.7975 78.1768L70.7159 77.7812ZM76.5753 85.1321L76.0242 85.9666L76.0333 85.9725L76.5753 85.1321ZM90.8509 86.8366L90.5558 85.8812L90.5518 85.8824L90.8509 86.8366ZM95.0767 84.6705L95.6938 85.4573L95.6959 85.4557L95.0767 84.6705ZM98.0952 81.1548L97.2287 80.6555L97.226 80.6603L98.0952 81.1548ZM99.7642 76.4318L99.7702 75.4318L98.9255 75.4268L98.7793 76.2588L99.7642 76.4318ZM117.52 76.5384L118.515 76.6335L118.619 75.5449L117.526 75.5384L117.52 76.5384ZM114.714 86.0554L113.82 85.6082L113.817 85.6136L114.714 86.0554ZM108.358 94.6136L109.046 95.3396L109.049 95.3364L108.358 94.6136ZM98.4858 100.722L98.1223 99.79L98.1203 99.7908L98.4858 100.722ZM67.5199 98.6619L67.0302 99.5338L67.0349 99.5365L67.5199 98.6619ZM55.233 85.9489L56.1127 85.4734L55.233 85.9489ZM55.304 45.2884L54.4274 44.8071L54.4274 44.8071L55.304 45.2884ZM97.4205 30.125L97.1078 31.0749L97.1133 31.0767L97.4205 30.125ZM107.293 35.4517L106.656 36.2231L106.66 36.2262L107.293 35.4517ZM117.52 54.6222H99.7642V56.6222H117.52V54.6222ZM100.756 55.4934C100.506 53.5728 99.9922 51.8179 99.2027 50.2389L97.4138 51.1333C98.0921 52.4899 98.5485 54.0257 98.7725 55.7509L100.756 55.4934ZM99.2027 50.2389C98.4114 48.6563 97.36 47.2953 96.0495 46.1647L94.7431 47.679C95.8474 48.6318 96.7373 49.7802 97.4138 51.1333L99.2027 50.2389ZM96.0495 46.1647C94.7333 45.0291 93.1823 44.1744 91.4116 43.5926L90.7873 45.4926C92.331 45.9999 93.6446 46.7313 94.7431 47.679L96.0495 46.1647ZM91.428 43.5981C89.6743 42.9881 87.7502 42.6903 85.6662 42.6903V44.6903C87.5595 44.6903 89.2575 44.9607 90.7709 45.4871L91.428 43.5981ZM85.6662 42.6903C81.9686 42.6903 78.7248 43.5988 75.9798 45.4542L77.0998 47.1112C79.4684 45.5101 82.3089 44.6903 85.6662 44.6903V42.6903ZM75.9762 45.4566C73.2602 47.3095 71.1944 49.9717 69.7585 53.3881L71.6023 54.163C72.9126 51.0454 74.753 48.7122 77.1034 47.1087L75.9762 45.4566ZM69.7561 53.3938C68.3437 56.8133 67.6562 60.9041 67.6562 65.6364H69.6562C69.6562 61.0883 70.3182 57.2719 71.6047 54.1573L69.7561 53.3938ZM67.6562 65.6364C67.6562 70.5537 68.3543 74.7432 69.794 78.1687L71.6378 77.3938C70.3313 74.2852 69.6562 70.3782 69.6562 65.6364H67.6562ZM69.7975 78.1768C71.2576 81.5673 73.3255 84.1844 76.0242 85.9666L77.1263 84.2976C74.8062 82.7654 72.9678 80.4819 71.6344 77.3857L69.7975 78.1768ZM76.0333 85.9725C78.7507 87.7249 81.9399 88.5824 85.5597 88.5824V86.5824C82.2665 86.5824 79.4661 85.8064 77.1172 84.2917L76.0333 85.9725ZM85.5597 88.5824C87.5858 88.5824 89.4523 88.323 91.1499 87.7909L90.5518 85.8824C89.0771 86.3446 87.4161 86.5824 85.5597 86.5824V88.5824ZM91.1459 87.7921C92.8611 87.2624 94.3813 86.4867 95.6938 85.4573L94.4596 83.8836C93.3573 84.7481 92.0603 85.4165 90.5558 85.8812L91.1459 87.7921ZM95.6959 85.4557C97.029 84.4046 98.1198 83.1337 98.9643 81.6494L97.226 80.6603C96.5081 81.9222 95.5865 82.9951 94.4576 83.8852L95.6959 85.4557ZM98.9616 81.6541C99.8304 80.1464 100.423 78.4597 100.749 76.6048L98.7793 76.2588C98.4896 77.9077 97.9697 79.3697 97.2287 80.6555L98.9616 81.6541ZM99.7582 77.4318L117.514 77.5383L117.526 75.5384L99.7702 75.4318L99.7582 77.4318ZM116.524 76.4432C116.229 79.5308 115.332 82.5844 113.82 85.6082L115.609 86.5026C117.222 83.2764 118.195 79.9853 118.515 76.6335L116.524 76.4432ZM113.817 85.6136C112.334 88.6263 110.287 91.3854 107.667 93.8909L109.049 95.3364C111.826 92.6809 114.017 89.7345 115.612 86.4972L113.817 85.6136ZM107.67 93.8877C105.076 96.3455 101.899 98.3162 98.1223 99.79L98.8493 101.653C102.838 100.097 106.242 97.9954 109.046 95.3396L107.67 93.8877ZM98.1203 99.7908C94.399 101.252 90.0997 101.994 85.2045 101.994V103.994C90.2999 103.994 94.8548 103.222 98.8513 101.652L98.1203 99.7908ZM85.2045 101.994C78.7746 101.994 73.0496 100.585 68.0049 97.7874L67.0349 99.5365C72.4068 102.515 78.4717 103.994 85.2045 103.994V101.994ZM68.0096 97.79C63.0004 94.9767 59.0354 90.8815 56.1127 85.4734L54.3532 86.4243C57.4438 92.1431 61.67 96.5233 67.0302 99.5338L68.0096 97.79ZM56.1127 85.4734C53.203 80.0894 51.723 73.4911 51.723 65.6364H49.723C49.723 73.738 51.2496 80.6815 54.3532 86.4243L56.1127 85.4734ZM51.723 65.6364C51.723 57.7596 53.226 51.1519 56.1806 45.7696L54.4274 44.8071C51.274 50.5517 49.723 57.5093 49.723 65.6364H51.723ZM56.1806 45.7696C59.15 40.3602 63.1501 36.276 68.1824 33.4853L67.2125 31.7363C61.8281 34.7221 57.5659 39.0896 54.4274 44.8071L56.1806 45.7696ZM68.1824 33.4853C73.2299 30.6863 78.8963 29.2784 85.2045 29.2784V27.2784C78.5867 27.2784 72.5817 28.7588 67.2125 31.7363L68.1824 33.4853ZM85.2045 29.2784C89.5142 29.2784 93.4793 29.8807 97.1078 31.0749L97.7331 29.1751C93.8805 27.9072 89.7017 27.2784 85.2045 27.2784V29.2784ZM97.1133 31.0767C100.742 32.2479 103.919 33.9649 106.656 36.2231L107.929 34.6803C104.984 32.251 101.58 30.4169 97.7276 29.1733L97.1133 31.0767ZM106.66 36.2262C109.392 38.4575 111.616 41.2032 113.332 44.4744L115.103 43.5455C113.267 40.0458 110.875 37.0861 107.925 34.6772L106.66 36.2262ZM113.332 44.4744C115.039 47.7303 116.109 51.4733 116.525 55.7195L118.515 55.5248C118.078 51.0589 116.946 47.0604 115.103 43.5455L113.332 44.4744ZM138.267 99.5142L137.767 100.38L137.773 100.383L138.267 99.5142ZM128.786 89.642L127.898 90.1031L127.902 90.109L128.786 89.642ZM128.786 60.1676L127.901 59.7027L127.9 59.7045L128.786 60.1676ZM138.267 50.2955L138.764 51.1634L138.766 51.1625L138.267 50.2955ZM167.777 50.2955L167.277 51.1612L167.283 51.1646L167.777 50.2955ZM177.259 60.1676L176.371 60.6287L176.375 60.6346L177.259 60.1676ZM177.259 89.642L176.374 89.1771L176.373 89.179L177.259 89.642ZM167.777 99.5142L168.274 100.382L168.276 100.381L167.777 99.5142ZM158.438 88.0085L157.775 87.2598L157.775 87.2598L158.438 88.0085ZM161.74 82.6818L160.795 82.3567L160.792 82.3656L161.74 82.6818ZM161.74 66.8438L160.792 67.16L160.795 67.1688L161.74 66.8438ZM158.438 61.517L159.101 60.7683L159.101 60.7683L158.438 61.517ZM147.678 61.517L147.027 60.7578L147.021 60.763L147.678 61.517ZM144.304 66.8438L143.359 66.5187L143.356 66.5275L144.304 66.8438ZM144.304 82.6818L143.356 82.9981L143.359 83.0069L144.304 82.6818ZM147.678 88.0085L147.021 88.7626L147.027 88.7678L147.678 88.0085ZM153.04 102.03C147.448 102.03 142.702 100.887 138.762 98.645L137.773 100.383C142.071 102.829 147.174 104.03 153.04 104.03V102.03ZM138.768 98.6484C134.836 96.3759 131.808 93.224 129.67 89.1751L127.902 90.109C130.214 94.4881 133.507 97.9176 137.767 100.38L138.768 98.6484ZM129.673 89.181C127.557 85.1081 126.483 80.3587 126.483 74.9048H124.483C124.483 80.6252 125.611 85.7006 127.898 90.1031L129.673 89.181ZM126.483 74.9048C126.483 69.4263 127.558 64.6781 129.672 60.6307L127.9 59.7045C125.611 64.0851 124.483 69.1618 124.483 74.9048H126.483ZM129.671 60.6325C131.809 56.5609 134.836 53.4111 138.764 51.1634L137.771 49.4275C133.507 51.8673 130.213 55.299 127.901 59.7027L129.671 60.6325ZM138.766 51.1625C142.705 48.8985 147.45 47.7443 153.04 47.7443V45.7443C147.172 45.7443 142.068 46.9576 137.769 49.4284L138.766 51.1625ZM153.04 47.7443C158.631 47.7443 163.363 48.8986 167.277 51.1612L168.278 49.4297C164.001 46.9575 158.908 45.7443 153.04 45.7443V47.7443ZM167.283 51.1646C171.233 53.4123 174.258 56.5606 176.372 60.6287L178.146 59.7066C175.856 55.2992 172.56 51.8661 168.272 49.4263L167.283 51.1646ZM176.375 60.6346C178.512 64.6812 179.597 69.4279 179.597 74.9048H181.597C181.597 69.1601 180.457 64.0821 178.143 59.7006L176.375 60.6346ZM179.597 74.9048C179.597 80.3571 178.512 85.1051 176.374 89.1771L178.144 90.107C180.457 85.7036 181.597 80.6268 181.597 74.9048H179.597ZM176.373 89.179C174.259 93.2243 171.233 96.3748 167.279 98.6472L168.276 100.381C172.56 97.9188 175.855 94.4879 178.145 90.1051L176.373 89.179ZM167.281 98.6463C163.366 100.887 158.632 102.03 153.04 102.03V104.03C158.906 104.03 163.998 102.829 168.274 100.382L167.281 98.6463ZM153.147 90.9261C155.453 90.9261 157.458 90.2111 159.101 88.7573L157.775 87.2598C156.529 88.3628 155.007 88.9261 153.147 88.9261V90.9261ZM159.101 88.7573C160.705 87.3373 161.889 85.3976 162.689 82.998L160.792 82.3656C160.076 84.5115 159.059 86.123 157.775 87.2598L159.101 88.7573ZM162.686 83.0069C163.511 80.6078 163.912 77.8663 163.912 74.7983H161.912C161.912 77.6962 161.533 80.2104 160.795 82.3567L162.686 83.0069ZM163.912 74.7983C163.912 71.6849 163.511 68.9192 162.686 66.5187L160.795 67.1688C161.532 69.3137 161.912 71.851 161.912 74.7983H163.912ZM162.689 66.5275C161.889 64.128 160.705 62.1883 159.101 60.7683L157.775 62.2658C159.059 63.4026 160.076 65.0141 160.792 67.16L162.689 66.5275ZM159.101 60.7683C157.458 59.3145 155.453 58.5994 153.147 58.5994V60.5994C155.007 60.5994 156.529 61.1628 157.775 62.2658L159.101 60.7683ZM153.147 58.5994C150.778 58.5994 148.718 59.3086 147.027 60.7578L148.329 62.2763C149.621 61.1687 151.206 60.5994 153.147 60.5994V58.5994ZM147.021 60.763C145.393 62.1807 144.184 64.1187 143.359 66.5187L145.25 67.1688C145.988 65.0234 147.027 63.4102 148.335 62.2711L147.021 60.763ZM143.356 66.5275C142.556 68.9251 142.168 71.6876 142.168 74.7983H144.168C144.168 71.8483 144.537 69.3078 145.253 67.16L143.356 66.5275ZM142.168 74.7983C142.168 77.8635 142.557 80.6019 143.356 82.998L145.253 82.3656C144.537 80.2163 144.168 77.699 144.168 74.7983H142.168ZM143.359 83.0069C144.184 85.4069 145.393 87.3449 147.021 88.7626L148.335 87.2544C147.027 86.1154 145.988 84.5022 145.25 82.3567L143.359 83.0069ZM147.027 88.7678C148.718 90.217 150.778 90.9261 153.147 90.9261V88.9261C151.206 88.9261 149.621 88.3569 148.329 87.2493L147.027 88.7678ZM206.858 29.2727H207.858V28.2727H206.858V29.2727ZM206.858 102V103H207.858V102H206.858ZM189.493 102H188.493V103H189.493V102ZM189.493 29.2727V28.2727H188.493V29.2727H189.493ZM205.858 29.2727V102H207.858V29.2727H205.858ZM206.858 101H189.493V103H206.858V101ZM190.493 102V29.2727H188.493V102H190.493ZM189.493 30.2727H206.858V28.2727H189.493V30.2727ZM228.599 99.5142L228.099 100.38L228.105 100.383L228.599 99.5142ZM219.118 89.642L218.23 90.1031L218.234 90.109L219.118 89.642ZM219.118 60.1676L218.233 59.7027L218.232 59.7045L219.118 60.1676ZM228.599 50.2955L229.096 51.1634L229.098 51.1625L228.599 50.2955ZM258.109 50.2955L257.609 51.1612L257.615 51.1646L258.109 50.2955ZM267.591 60.1676L266.704 60.6287L266.707 60.6346L267.591 60.1676ZM267.591 89.642L266.706 89.1771L266.705 89.179L267.591 89.642ZM258.109 99.5142L258.606 100.382L258.608 100.381L258.109 99.5142ZM248.77 88.0085L248.107 87.2598L248.107 87.2598L248.77 88.0085ZM252.072 82.6818L251.127 82.3567L251.124 82.3656L252.072 82.6818ZM252.072 66.8438L251.124 67.16L251.127 67.1688L252.072 66.8438ZM248.77 61.517L249.433 60.7683L249.433 60.7683L248.77 61.517ZM238.01 61.517L237.359 60.7578L237.353 60.763L238.01 61.517ZM234.636 66.8438L233.691 66.5187L233.688 66.5275L234.636 66.8438ZM234.636 82.6818L233.688 82.9981L233.691 83.0069L234.636 82.6818ZM238.01 88.0085L237.353 88.7626L237.359 88.7678L238.01 88.0085ZM243.372 102.03C237.78 102.03 233.034 100.887 229.094 98.645L228.105 100.383C232.403 102.829 237.506 104.03 243.372 104.03V102.03ZM229.1 98.6484C225.168 96.3759 222.14 93.224 220.002 89.1751L218.234 90.109C220.546 94.4881 223.839 97.9176 228.099 100.38L229.1 98.6484ZM220.005 89.181C217.889 85.1081 216.815 80.3587 216.815 74.9048H214.815C214.815 80.6252 215.943 85.7006 218.231 90.1031L220.005 89.181ZM216.815 74.9048C216.815 69.4263 217.89 64.6781 220.004 60.6307L218.232 59.7045C215.943 64.0851 214.815 69.1618 214.815 74.9048H216.815ZM220.003 60.6325C222.141 56.5609 225.168 53.4111 229.096 51.1634L228.103 49.4275C223.839 51.8673 220.545 55.299 218.233 59.7027L220.003 60.6325ZM229.098 51.1625C233.037 48.8985 237.782 47.7443 243.372 47.7443V45.7443C237.504 45.7443 232.4 46.9576 228.101 49.4284L229.098 51.1625ZM243.372 47.7443C248.963 47.7443 253.695 48.8986 257.609 51.1612L258.61 49.4297C254.333 46.9575 249.24 45.7443 243.372 45.7443V47.7443ZM257.615 51.1646C261.565 53.4123 264.59 56.5606 266.704 60.6287L268.478 59.7066C266.188 55.2992 262.892 51.8661 258.604 49.4263L257.615 51.1646ZM266.707 60.6346C268.844 64.6812 269.929 69.4279 269.929 74.9048H271.929C271.929 69.1601 270.789 64.0821 268.475 59.7006L266.707 60.6346ZM269.929 74.9048C269.929 80.3571 268.844 85.1051 266.706 89.1771L268.476 90.107C270.789 85.7036 271.929 80.6268 271.929 74.9048H269.929ZM266.705 89.179C264.591 93.2243 261.565 96.3748 257.611 98.6472L258.608 100.381C262.892 97.9188 266.187 94.4879 268.477 90.1051L266.705 89.179ZM257.613 98.6463C253.698 100.887 248.964 102.03 243.372 102.03V104.03C249.238 104.03 254.33 102.829 258.606 100.382L257.613 98.6463ZM243.479 90.9261C245.785 90.9261 247.79 90.2111 249.433 88.7573L248.107 87.2598C246.861 88.3628 245.339 88.9261 243.479 88.9261V90.9261ZM249.433 88.7573C251.037 87.3373 252.221 85.3976 253.021 82.998L251.124 82.3656C250.408 84.5115 249.391 86.123 248.107 87.2598L249.433 88.7573ZM253.018 83.0069C253.843 80.6078 254.244 77.8663 254.244 74.7983H252.244C252.244 77.6962 251.865 80.2104 251.127 82.3567L253.018 83.0069ZM254.244 74.7983C254.244 71.6849 253.843 68.9192 253.018 66.5187L251.127 67.1688C251.864 69.3137 252.244 71.851 252.244 74.7983H254.244ZM253.021 66.5275C252.221 64.128 251.037 62.1883 249.433 60.7683L248.107 62.2658C249.391 63.4026 250.408 65.0141 251.124 67.16L253.021 66.5275ZM249.433 60.7683C247.79 59.3145 245.785 58.5994 243.479 58.5994V60.5994C245.339 60.5994 246.861 61.1628 248.107 62.2658L249.433 60.7683ZM243.479 58.5994C241.11 58.5994 239.05 59.3086 237.359 60.7578L238.661 62.2763C239.953 61.1687 241.538 60.5994 243.479 60.5994V58.5994ZM237.353 60.763C235.725 62.1807 234.516 64.1187 233.691 66.5187L235.582 67.1688C236.32 65.0234 237.359 63.4102 238.667 62.2711L237.353 60.763ZM233.688 66.5275C232.888 68.9251 232.5 71.6876 232.5 74.7983H234.5C234.5 71.8483 234.869 69.3078 235.585 67.16L233.688 66.5275ZM232.5 74.7983C232.5 77.8635 232.889 80.6019 233.688 82.998L235.585 82.3656C234.869 80.2163 234.5 77.699 234.5 74.7983H232.5ZM233.691 83.0069C234.516 85.4069 235.725 87.3449 237.353 88.7626L238.667 87.2544C237.359 86.1154 236.32 84.5022 235.582 82.3567L233.691 83.0069ZM237.359 88.7678C239.05 90.217 241.11 90.9261 243.479 90.9261V88.9261C241.538 88.9261 239.953 88.3569 238.661 87.2493L237.359 88.7678ZM279.825 102H278.825V103H279.825V102ZM279.825 47.4545V46.4545H278.825V47.4545H279.825ZM296.692 47.4545H297.692V46.4545H296.692V47.4545ZM296.692 57.3977H295.692V58.3977H296.692V57.3977ZM297.261 57.3977V58.3977H298.022L298.225 57.6641L297.261 57.3977ZM302.126 49.3722L302.74 50.1611L302.745 50.157L302.126 49.3722ZM312.46 46.8864L312.322 47.8769L312.335 47.8787L312.349 47.8802L312.46 46.8864ZM314.839 47.348H315.839V46.597L315.118 46.3877L314.839 47.348ZM314.839 62.4403L314.514 63.3863L315.839 63.8403V62.4403H314.839ZM311.572 61.7656L311.448 62.7579L311.45 62.7582L311.572 61.7656ZM302.445 62.902L302.928 63.7779L302.932 63.7756L302.445 62.902ZM298.575 66.7017L297.709 66.2002L297.707 66.2042L298.575 66.7017ZM297.19 102V103H298.19V102H297.19ZM280.825 102V47.4545H278.825V102H280.825ZM279.825 48.4545H296.692V46.4545H279.825V48.4545ZM295.692 47.4545V57.3977H297.692V47.4545H295.692ZM296.692 58.3977H297.261V56.3977H296.692V58.3977ZM298.225 57.6641C299.179 54.2088 300.707 51.7452 302.74 50.1611L301.511 48.5833C299.047 50.503 297.331 53.3897 296.297 57.1314L298.225 57.6641ZM302.745 50.157C304.81 48.5268 307.206 47.7088 309.974 47.7088V45.7088C306.776 45.7088 303.939 46.6663 301.506 48.5873L302.745 50.157ZM309.974 47.7088C310.73 47.7088 311.512 47.7644 312.322 47.8769L312.597 45.8959C311.702 45.7716 310.828 45.7088 309.974 45.7088V47.7088ZM312.349 47.8802C313.151 47.9694 313.887 48.1131 314.56 48.3084L315.118 46.3877C314.322 46.1568 313.472 45.9928 312.57 45.8925L312.349 47.8802ZM313.839 47.348V62.4403H315.839V47.348H313.839ZM315.163 61.4944C314.243 61.179 313.079 60.9432 311.694 60.7731L311.45 62.7582C312.764 62.9195 313.777 63.1335 314.514 63.3863L315.163 61.4944ZM311.696 60.7733C310.34 60.6038 309.113 60.517 308.021 60.517V62.517C309.011 62.517 310.152 62.596 311.448 62.7579L311.696 60.7733ZM308.021 60.517C305.806 60.517 303.777 61.0152 301.959 62.0284L302.932 63.7756C304.428 62.9422 306.116 62.517 308.021 62.517V60.517ZM301.963 62.026C300.168 63.0145 298.746 64.4114 297.709 66.2002L299.44 67.2032C300.297 65.7249 301.456 64.5887 302.928 63.7779L301.963 62.026ZM297.707 66.2042C296.683 67.9899 296.19 70.0615 296.19 72.3835H298.19C298.19 70.3495 298.62 68.6332 299.442 67.1992L297.707 66.2042ZM296.19 72.3835V102H298.19V72.3835H296.19ZM297.19 101H279.825V103H297.19V101ZM361.225 51.0767L360.23 51.1672L360.312 52.0767H361.225V51.0767ZM358.065 45.0043L357.443 45.7872L357.454 45.7958L358.065 45.0043ZM344.464 43.6903L344.1 42.7589L344.1 42.7589L344.464 43.6903ZM341.055 46.1406L341.857 46.7377L341.864 46.7288L341.055 46.1406ZM339.883 49.6562L340.882 49.6997L340.883 49.6869L340.883 49.6741L339.883 49.6562ZM340.522 52.5327L339.654 53.0288L339.659 53.038L339.665 53.0472L340.522 52.5327ZM342.653 54.7344L342.084 55.5566L342.096 55.5649L342.108 55.5728L342.653 54.7344ZM346.062 56.3679L346.398 55.4262L346.398 55.4262L346.062 56.3679ZM350.537 57.6108L350.758 56.6356L350.746 56.633L350.537 57.6108ZM356.787 59.0312L356.565 60.0064L356.574 60.0085L356.787 59.0312ZM366.304 62.1562L365.875 63.0598L365.878 63.0612L366.304 62.1562ZM373.264 66.8082L372.571 67.5289L372.575 67.5332L373.264 66.8082ZM377.561 73.0227L376.637 73.4054L376.637 73.4054L377.561 73.0227ZM379.052 80.9062L380.052 80.9114L380.052 80.8981L379.052 80.9062ZM375.572 92.7315L374.752 92.1593L374.752 92.1593L375.572 92.7315ZM365.664 100.295L365.288 99.3691L365.286 99.3698L365.664 100.295ZM334.237 100.189L334.611 99.2615L334.611 99.2615L334.237 100.189ZM323.69 91.8793L322.861 92.4388L323.69 91.8793ZM319.819 77.7812V76.7812H318.807L318.819 77.7937L319.819 77.7812ZM336.652 77.7812L337.65 77.7208L337.593 76.7812H336.652V77.7812ZM338.534 83.6406L337.719 84.2207L337.719 84.2207L338.534 83.6406ZM343.115 87.1918L342.732 88.1155L342.736 88.1171L343.115 87.1918ZM355.97 87.4403L355.614 86.5056L355.61 86.5073L355.97 87.4403ZM359.841 84.777L359.057 84.1563L359.057 84.1563L359.841 84.777ZM361.225 80.8707L362.225 80.8869L362.226 80.8702L362.225 80.8535L361.225 80.8707ZM359.947 77.3551L359.179 77.9953L359.187 78.0044L359.947 77.3551ZM356.112 74.7983L355.716 75.7168L355.724 75.7201L355.732 75.7232L356.112 74.7983ZM349.578 72.7741L349.35 73.7479L349.352 73.7482L349.578 72.7741ZM341.978 70.9986L342.206 70.0248L342.202 70.0239L341.978 70.9986ZM327.099 64.0028L326.432 64.7478L326.435 64.7503L327.099 64.0028ZM321.701 50.8636L322.701 50.8679L322.701 50.8584L321.701 50.8636ZM325.324 39.0384L324.512 38.4539L324.512 38.4539L325.324 39.0384ZM335.444 31.1193L335.847 32.0348L335.847 32.0348L335.444 31.1193ZM364.848 31.1548L364.428 32.0624L364.434 32.0652L364.848 31.1548ZM374.542 39.1449L375.373 38.5889L375.373 38.5889L374.542 39.1449ZM378.058 51.0767V52.0767H379.068L379.058 51.0662L378.058 51.0767ZM362.221 50.9862C361.962 48.1378 360.791 45.846 358.676 44.2128L357.454 45.7958C359.079 47.0508 360.015 48.8073 360.23 51.1672L362.221 50.9862ZM358.687 44.2214C356.599 42.5615 353.705 41.8026 350.146 41.8026V43.8026C353.452 43.8026 355.838 44.5114 357.443 45.7871L358.687 44.2214ZM350.146 41.8026C347.795 41.8026 345.768 42.1076 344.1 42.7589L344.828 44.6218C346.191 44.0894 347.952 43.8026 350.146 43.8026V41.8026ZM344.1 42.7589C342.454 43.4021 341.142 44.3202 340.246 45.5525L341.864 46.7288C342.483 45.8777 343.444 45.1623 344.828 44.6218L344.1 42.7589ZM340.253 45.5436C339.365 46.7371 338.911 48.1137 338.883 49.6384L340.883 49.6741C340.903 48.5473 341.23 47.5801 341.857 46.7376L340.253 45.5436ZM338.884 49.6128C338.83 50.863 339.074 52.014 339.654 53.0288L341.391 52.0365C341.024 51.3942 340.842 50.6276 340.882 49.6997L338.884 49.6128ZM339.665 53.0472C340.246 54.0159 341.062 54.8495 342.084 55.5566L343.222 53.9122C342.397 53.3409 341.793 52.7067 341.38 52.0182L339.665 53.0472ZM342.108 55.5728C343.134 56.2397 344.344 56.8161 345.726 57.3096L346.398 55.4262C345.129 54.9727 344.066 54.4601 343.198 53.8959L342.108 55.5728ZM345.726 57.3096C347.1 57.8005 348.635 58.2261 350.327 58.5886L350.746 56.633C349.124 56.2853 347.675 55.8822 346.398 55.4262L345.726 57.3096ZM350.315 58.5859L356.565 60.0064L357.008 58.0561L350.758 56.6357L350.315 58.5859ZM356.574 60.0085C360.113 60.7768 363.211 61.7965 365.875 63.0598L366.732 61.2527C363.904 59.9118 360.657 58.8482 356.999 58.054L356.574 60.0085ZM365.878 63.0612C368.567 64.325 370.792 65.8175 372.571 67.5289L373.957 66.0876C371.996 64.2005 369.58 62.5916 366.729 61.2513L365.878 63.0612ZM372.575 67.5332C374.371 69.239 375.721 71.1948 376.637 73.4054L378.485 72.6401C377.459 70.1631 375.945 67.9759 373.953 66.0832L372.575 67.5332ZM376.637 73.4054C377.552 75.6141 378.029 78.1122 378.052 80.9144L380.052 80.8981C380.028 77.8765 379.511 75.1189 378.485 72.6401L376.637 73.4054ZM378.052 80.9011C378.029 85.3213 376.916 89.0582 374.752 92.1593L376.392 93.3038C378.821 89.8234 380.028 85.6768 380.052 80.9114L378.052 80.9011ZM374.752 92.1593C372.583 95.2677 369.447 97.6781 365.288 99.3691L366.041 101.222C370.5 99.409 373.969 96.7768 376.392 93.3038L374.752 92.1593ZM365.286 99.3698C361.152 101.06 356.115 101.923 350.146 101.923V103.923C356.298 103.923 361.607 103.035 366.043 101.221L365.286 99.3698ZM350.146 101.923C344.159 101.923 338.988 101.026 334.611 99.2615L333.863 101.116C338.529 102.997 343.964 103.923 350.146 103.923V101.923ZM334.611 99.2615C330.257 97.5063 326.907 94.8569 324.519 91.3197L322.861 92.4388C325.492 96.3354 329.173 99.2257 333.863 101.116L334.611 99.2615ZM324.519 91.3197C322.144 87.8028 320.888 83.3073 320.819 77.7688L318.819 77.7937C318.892 83.6188 320.217 88.522 322.861 92.4388L324.519 91.3197ZM319.819 78.7812H336.652V76.7812H319.819V78.7812ZM335.653 77.8417C335.804 80.3305 336.476 82.4746 337.719 84.2207L339.348 83.0606C338.366 81.6816 337.783 79.9195 337.65 77.7208L335.653 77.8417ZM337.719 84.2207C338.951 85.9504 340.634 87.2459 342.732 88.1155L343.498 86.268C341.713 85.5278 340.342 84.4558 339.348 83.0606L337.719 84.2207ZM342.736 88.1171C344.844 88.9807 347.25 89.3991 349.933 89.3991V87.3991C347.455 87.3991 345.316 87.0127 343.494 86.2664L342.736 88.1171ZM349.933 89.3991C352.385 89.3991 354.526 89.0689 356.33 88.3733L355.61 86.5073C354.099 87.0902 352.216 87.3991 349.933 87.3991V89.3991ZM356.325 88.375C358.134 87.6871 359.589 86.7058 360.625 85.3977L359.057 84.1563C358.293 85.1209 357.167 85.9152 355.614 86.5056L356.325 88.375ZM360.625 85.3977C361.663 84.0866 362.198 82.5714 362.225 80.8869L360.226 80.8546C360.205 82.1057 359.818 83.1946 359.057 84.1563L360.625 85.3977ZM362.225 80.8535C362.198 79.2673 361.699 77.8669 360.708 76.7059L359.187 78.0044C359.853 78.7846 360.206 79.728 360.226 80.888L362.225 80.8535ZM360.715 76.7149C359.746 75.5524 358.308 74.6199 356.492 73.8734L355.732 75.7232C357.372 76.3972 358.49 77.1692 359.179 77.9953L360.715 76.7149ZM356.507 73.8798C354.729 73.1143 352.489 72.4234 349.804 71.8L349.352 73.7482C351.969 74.3559 354.085 75.0145 355.716 75.7168L356.507 73.8798ZM349.805 71.8004L342.206 70.0248L341.751 71.9724L349.35 73.7479L349.805 71.8004ZM342.202 70.0239C336.016 68.6053 331.225 66.3325 327.763 63.2554L326.435 64.7503C330.217 68.1125 335.346 70.5036 341.755 71.9733L342.202 70.0239ZM327.766 63.2579C324.387 60.2319 322.679 56.1409 322.701 50.8679L320.701 50.8593C320.677 56.6186 322.567 61.287 326.432 64.7478L327.766 63.2579ZM322.701 50.8584C322.679 46.5544 323.83 42.8229 326.135 39.6228L324.512 38.4539C321.94 42.0247 320.677 46.1767 320.701 50.8689L322.701 50.8584ZM326.135 39.6228C328.456 36.4001 331.68 33.8663 335.847 32.0348L335.042 30.2039C330.591 32.1602 327.068 34.9058 324.512 38.4539L326.135 39.6228ZM335.847 32.0348C340.009 30.2053 344.78 29.2784 350.181 29.2784V27.2784C344.55 27.2784 339.497 28.2454 335.042 30.2039L335.847 32.0348ZM350.181 29.2784C355.704 29.2784 360.443 30.2182 364.428 32.0623L365.268 30.2473C360.966 28.2562 355.928 27.2784 350.181 27.2784V29.2784ZM364.434 32.0652C368.45 33.8907 371.529 36.4392 373.711 39.7009L375.373 38.5889C372.963 34.9851 369.579 32.2068 365.261 30.2445L364.434 32.0652ZM373.711 39.7009C375.889 42.9568 377.012 46.7406 377.058 51.0872L379.058 51.0662C379.009 46.3693 377.788 42.1985 375.373 38.5889L373.711 39.7009ZM378.058 50.0767H361.225V52.0767H378.058V50.0767ZM418.718 47.4545H419.718V46.4545H418.718V47.4545ZM418.718 60.2386V61.2386H419.718V60.2386H418.718ZM384.308 60.2386H383.308V61.2386H384.308V60.2386ZM384.308 47.4545V46.4545H383.308V47.4545H384.308ZM391.517 34.3864V33.3864H390.517V34.3864H391.517ZM408.882 34.3864H409.882V33.3864H408.882V34.3864ZM409.379 87.4403L408.484 87.8876L408.494 87.907L408.505 87.926L409.379 87.4403ZM410.906 88.8253L410.512 89.7444L410.526 89.7504L410.54 89.756L410.906 88.8253ZM415.38 89.0384L415.54 90.0256L415.552 90.0236L415.565 90.0212L415.38 89.0384ZM417.085 88.6832L418.064 88.4781L417.85 87.4611L416.842 87.7131L417.085 88.6832ZM419.713 101.219L419.987 102.18L420.882 101.925L420.691 101.014L419.713 101.219ZM416.197 102.107L415.969 101.133L415.965 101.134L416.197 102.107ZM410.835 102.781L410.789 101.782L410.788 101.782L410.835 102.781ZM400.359 101.361L399.986 102.289L399.995 102.292L400.359 101.361ZM393.718 95.9631L392.869 96.4909L392.873 96.4968L393.718 95.9631ZM391.517 86.7656L392.517 86.7784V86.7656H391.517ZM417.718 47.4545V60.2386H419.718V47.4545H417.718ZM418.718 59.2386H384.308V61.2386H418.718V59.2386ZM385.308 60.2386V47.4545H383.308V60.2386H385.308ZM384.308 48.4545H418.718V46.4545H384.308V48.4545ZM391.517 35.3864H408.882V33.3864H391.517V35.3864ZM407.882 34.3864V84.848H409.882V34.3864H407.882ZM407.882 84.848C407.882 86.0054 408.06 87.0386 408.484 87.8876L410.273 86.9931C410.035 86.5163 409.882 85.8213 409.882 84.848H407.882ZM408.505 87.926C408.966 88.756 409.642 89.3717 410.512 89.7444L411.3 87.9061C410.844 87.7107 410.502 87.4031 410.253 86.9547L408.505 87.926ZM410.54 89.756C411.348 90.0736 412.272 90.2159 413.285 90.2159V88.2159C412.452 88.2159 411.789 88.0978 411.272 87.8945L410.54 89.756ZM413.285 90.2159C414.007 90.2159 414.759 90.1515 415.54 90.0256L415.221 88.0511C414.534 88.162 413.889 88.2159 413.285 88.2159V90.2159ZM415.565 90.0212C416.327 89.8783 416.919 89.7555 417.327 89.6534L416.842 87.7131C416.493 87.8003 415.949 87.9143 415.196 88.0555L415.565 90.0212ZM416.106 88.8884L418.734 101.424L420.691 101.014L418.064 88.4781L416.106 88.8884ZM419.438 100.257C418.632 100.487 417.479 100.779 415.969 101.133L416.425 103.08C417.946 102.724 419.136 102.424 419.987 102.18L419.438 100.257ZM415.965 101.134C414.552 101.47 412.831 101.689 410.789 101.782L410.88 103.78C413.006 103.684 414.859 103.453 416.429 103.079L415.965 101.134ZM410.788 101.782C406.816 101.967 403.471 101.502 400.723 100.429L399.995 102.292C403.071 103.493 406.71 103.974 410.881 103.78L410.788 101.782ZM400.732 100.433C398.022 99.3446 395.982 97.6756 394.564 95.4294L392.873 96.4968C394.533 99.1275 396.919 101.057 399.986 102.289L400.732 100.433ZM394.568 95.4353C393.179 93.1995 392.471 90.3348 392.517 86.7784L390.517 86.7528C390.468 90.5828 391.228 93.8498 392.869 96.4908L394.568 95.4353ZM392.517 86.7656V34.3864H390.517V86.7656H392.517ZM437.681 99.5142L437.181 100.38L437.187 100.383L437.681 99.5142ZM428.2 89.642L427.313 90.1031L427.316 90.109L428.2 89.642ZM428.2 60.1676L427.315 59.7027L427.314 59.7045L428.2 60.1676ZM437.681 50.2955L438.178 51.1634L438.18 51.1625L437.681 50.2955ZM467.191 50.2955L466.691 51.1612L466.697 51.1646L467.191 50.2955ZM476.673 60.1676L475.786 60.6287L475.789 60.6346L476.673 60.1676ZM476.673 89.642L475.788 89.1771L475.787 89.179L476.673 89.642ZM467.191 99.5142L467.688 100.382L467.69 100.381L467.191 99.5142ZM457.852 88.0085L457.189 87.2598L457.189 87.2598L457.852 88.0085ZM461.154 82.6818L460.209 82.3567L460.206 82.3656L461.154 82.6818ZM461.154 66.8438L460.206 67.16L460.209 67.1688L461.154 66.8438ZM457.852 61.517L458.515 60.7683L458.515 60.7683L457.852 61.517ZM447.092 61.517L446.441 60.7578L446.435 60.763L447.092 61.517ZM443.718 66.8438L442.773 66.5187L442.77 66.5275L443.718 66.8438ZM443.718 82.6818L442.77 82.9981L442.773 83.0069L443.718 82.6818ZM447.092 88.0085L446.435 88.7626L446.441 88.7678L447.092 88.0085ZM452.454 102.03C446.862 102.03 442.116 100.887 438.176 98.645L437.187 100.383C441.486 102.829 446.588 104.03 452.454 104.03V102.03ZM438.182 98.6484C434.25 96.3759 431.222 93.224 429.084 89.1751L427.316 90.109C429.628 94.4881 432.921 97.9176 437.181 100.38L438.182 98.6484ZM429.087 89.181C426.971 85.1081 425.897 80.3587 425.897 74.9048H423.897C423.897 80.6252 425.025 85.7006 427.313 90.1031L429.087 89.181ZM425.897 74.9048C425.897 69.4263 426.972 64.6781 429.086 60.6307L427.314 59.7045C425.025 64.0851 423.897 69.1618 423.897 74.9048H425.897ZM429.085 60.6325C431.223 56.5609 434.25 53.4111 438.178 51.1634L437.185 49.4275C432.921 51.8673 429.627 55.299 427.315 59.7027L429.085 60.6325ZM438.18 51.1625C442.119 48.8985 446.864 47.7443 452.454 47.7443V45.7443C446.586 45.7443 441.483 46.9576 437.183 49.4284L438.18 51.1625ZM452.454 47.7443C458.045 47.7443 462.777 48.8986 466.691 51.1612L467.692 49.4297C463.415 46.9575 458.322 45.7443 452.454 45.7443V47.7443ZM466.697 51.1646C470.647 53.4123 473.672 56.5606 475.786 60.6287L477.56 59.7066C475.27 55.2992 471.974 51.8661 467.686 49.4263L466.697 51.1646ZM475.789 60.6346C477.926 64.6812 479.011 69.4279 479.011 74.9048H481.011C481.011 69.1601 479.871 64.0821 477.557 59.7006L475.789 60.6346ZM479.011 74.9048C479.011 80.3571 477.926 85.1051 475.788 89.1771L477.558 90.107C479.871 85.7036 481.011 80.6268 481.011 74.9048H479.011ZM475.787 89.179C473.673 93.2243 470.647 96.3748 466.693 98.6472L467.69 100.381C471.974 97.9188 475.269 94.4879 477.559 90.1051L475.787 89.179ZM466.695 98.6463C462.78 100.887 458.046 102.03 452.454 102.03V104.03C458.32 104.03 463.412 102.829 467.688 100.382L466.695 98.6463ZM452.561 90.9261C454.867 90.9261 456.872 90.2111 458.515 88.7573L457.189 87.2598C455.943 88.3628 454.421 88.9261 452.561 88.9261V90.9261ZM458.515 88.7573C460.119 87.3373 461.303 85.3976 462.103 82.998L460.206 82.3656C459.49 84.5115 458.473 86.123 457.189 87.2598L458.515 88.7573ZM462.1 83.0069C462.925 80.6078 463.326 77.8663 463.326 74.7983H461.326C461.326 77.6962 460.947 80.2104 460.209 82.3567L462.1 83.0069ZM463.326 74.7983C463.326 71.6849 462.925 68.9192 462.1 66.5187L460.209 67.1688C460.946 69.3137 461.326 71.851 461.326 74.7983H463.326ZM462.103 66.5275C461.303 64.128 460.119 62.1883 458.515 60.7683L457.189 62.2658C458.473 63.4026 459.49 65.0141 460.206 67.16L462.103 66.5275ZM458.515 60.7683C456.872 59.3145 454.867 58.5994 452.561 58.5994V60.5994C454.421 60.5994 455.943 61.1628 457.189 62.2658L458.515 60.7683ZM452.561 58.5994C450.192 58.5994 448.132 59.3086 446.441 60.7578L447.743 62.2763C449.035 61.1687 450.62 60.5994 452.561 60.5994V58.5994ZM446.435 60.763C444.807 62.1807 443.598 64.1187 442.773 66.5187L444.664 67.1688C445.402 65.0234 446.441 63.4102 447.749 62.2711L446.435 60.763ZM442.77 66.5275C441.971 68.9251 441.582 71.6876 441.582 74.7983H443.582C443.582 71.8483 443.951 69.3078 444.667 67.16L442.77 66.5275ZM441.582 74.7983C441.582 77.8635 441.971 80.6019 442.77 82.998L444.667 82.3656C443.951 80.2163 443.582 77.699 443.582 74.7983H441.582ZM442.773 83.0069C443.598 85.4069 444.807 87.3449 446.435 88.7626L447.749 87.2544C446.441 86.1154 445.402 84.5022 444.664 82.3567L442.773 83.0069ZM446.441 88.7678C448.132 90.217 450.192 90.9261 452.561 90.9261V88.9261C450.62 88.9261 449.035 88.3569 447.743 87.2493L446.441 88.7678ZM488.907 102H487.907V103H488.907V102ZM488.907 47.4545V46.4545H487.907V47.4545H488.907ZM505.775 47.4545H506.775V46.4545H505.775V47.4545ZM505.775 57.3977H504.775V58.3977H505.775V57.3977ZM506.343 57.3977V58.3977H507.104L507.307 57.6641L506.343 57.3977ZM511.208 49.3722L511.822 50.1611L511.827 50.157L511.208 49.3722ZM521.542 46.8864L521.404 47.8769L521.418 47.8787L521.431 47.8802L521.542 46.8864ZM523.921 47.348H524.921V46.597L524.2 46.3877L523.921 47.348ZM523.921 62.4403L523.596 63.3863L524.921 63.8403V62.4403H523.921ZM520.654 61.7656L520.53 62.7579L520.532 62.7582L520.654 61.7656ZM511.527 62.902L512.01 63.7779L512.014 63.7756L511.527 62.902ZM507.657 66.7017L506.791 66.2002L506.789 66.2042L507.657 66.7017ZM506.272 102V103H507.272V102H506.272ZM489.907 102V47.4545H487.907V102H489.907ZM488.907 48.4545H505.775V46.4545H488.907V48.4545ZM504.775 47.4545V57.3977H506.775V47.4545H504.775ZM505.775 58.3977H506.343V56.3977H505.775V58.3977ZM507.307 57.6641C508.261 54.2088 509.789 51.7452 511.822 50.1611L510.593 48.5833C508.129 50.503 506.413 53.3897 505.379 57.1314L507.307 57.6641ZM511.827 50.157C513.892 48.5268 516.288 47.7088 519.056 47.7088V45.7088C515.858 45.7088 513.021 46.6663 510.588 48.5873L511.827 50.157ZM519.056 47.7088C519.812 47.7088 520.594 47.7644 521.404 47.8769L521.679 45.8959C520.784 45.7716 519.91 45.7088 519.056 45.7088V47.7088ZM521.431 47.8802C522.233 47.9694 522.969 48.1131 523.642 48.3084L524.2 46.3877C523.404 46.1568 522.554 45.9928 521.652 45.8925L521.431 47.8802ZM522.921 47.348V62.4403H524.921V47.348H522.921ZM524.245 61.4944C523.325 61.179 522.161 60.9432 520.776 60.7731L520.532 62.7582C521.846 62.9195 522.859 63.1335 523.596 63.3863L524.245 61.4944ZM520.778 60.7733C519.422 60.6038 518.195 60.517 517.103 60.517V62.517C518.093 62.517 519.234 62.596 520.53 62.7579L520.778 60.7733ZM517.103 60.517C514.888 60.517 512.859 61.0152 511.041 62.0284L512.014 63.7756C513.51 62.9422 515.198 62.517 517.103 62.517V60.517ZM511.045 62.026C509.25 63.0145 507.828 64.4114 506.791 66.2002L508.522 67.2032C509.379 65.7249 510.538 64.5887 512.01 63.7779L511.045 62.026ZM506.789 66.2042C505.765 67.9899 505.272 70.0615 505.272 72.3835H507.272C507.272 70.3495 507.702 68.6332 508.524 67.1992L506.789 66.2042ZM505.272 72.3835V102H507.272V72.3835H505.272ZM506.272 101H488.907V103H506.272V101ZM535.054 101.183L534.649 102.098L534.659 102.102L535.054 101.183ZM528.697 95.8565L527.856 96.3977L527.862 96.4074L528.697 95.8565ZM527.987 79.2017L527.097 78.7464L527.097 78.7464L527.987 79.2017ZM532.39 74.1236L532.962 74.9443L532.962 74.9443L532.39 74.1236ZM538.853 71.1761L539.116 72.1412L539.124 72.1387L538.853 71.1761ZM546.666 69.7912L546.751 70.7876L546.757 70.787L546.666 69.7912ZM554.159 68.9034L554.319 69.8905L554.331 69.8884L554.159 68.9034ZM558.278 67.5185L558.848 68.3398L558.853 68.3367L558.278 67.5185ZM557.71 60.5227L558.331 59.739L558.331 59.739L557.71 60.5227ZM547.092 60.5227L546.512 59.7081L546.512 59.7081L547.092 60.5227ZM544.429 64.642L544.393 65.6414L545.229 65.6711L545.406 64.8534L544.429 64.642ZM528.413 64.0739L527.423 63.9324L527.266 65.0338L528.378 65.0732L528.413 64.0739ZM532.071 55.196L531.273 54.5926L531.272 54.5937L532.071 55.196ZM540.238 49.017L540.634 49.9352L540.637 49.9339L540.238 49.017ZM562.397 47.9872L562.126 48.9496L562.133 48.9516L562.397 47.9872ZM570.068 51.5384L569.485 52.3509L569.491 52.3551L570.068 51.5384ZM575.11 57.2202L574.225 57.6859L574.229 57.6932L575.11 57.2202ZM576.922 102V103H577.922V102H576.922ZM560.586 102H559.586V103H560.586V102ZM560.586 94.4006H561.586V93.4006H560.586V94.4006ZM560.16 94.4006V93.4006H559.556L559.275 93.9353L560.16 94.4006ZM556.431 99.0881L555.787 98.3238L555.781 98.3288L556.431 99.0881ZM551.14 101.964L550.841 101.01L550.838 101.011L551.14 101.964ZM554.727 90.4233L554.28 89.5289L554.274 89.5317L554.727 90.4233ZM558.349 87.2983L559.177 87.8598L559.181 87.853L558.349 87.2983ZM559.699 77.4261H560.699V75.7734L559.235 76.5403L559.699 77.4261ZM557.887 78.1364L557.6 77.1785L557.591 77.1813L557.887 78.1364ZM555.615 78.7401L555.392 77.7652L555.615 78.7401ZM553.058 79.2372L553.218 80.2243L553.218 80.2243L553.058 79.2372ZM550.537 79.6278L550.391 78.6384L550.379 78.6403L550.537 79.6278ZM546.346 80.8352L545.921 79.93L545.914 79.9334L546.346 80.8352ZM543.718 82.9659L542.9 82.391L542.897 82.3955L543.718 82.9659ZM544.748 90.1392L544.153 90.9428L544.16 90.9479L544.748 90.1392ZM544.322 101.923C540.953 101.923 538.002 101.362 535.449 100.265L534.659 102.102C537.503 103.325 540.731 103.923 544.322 103.923V101.923ZM535.458 100.269C532.952 99.16 530.985 97.508 529.532 95.3057L527.862 96.4074C529.534 98.9399 531.804 100.839 534.649 102.098L535.458 100.269ZM529.538 95.3154C528.127 93.1235 527.389 90.3294 527.389 86.8722H525.389C525.389 90.6119 526.189 93.8073 527.856 96.3977L529.538 95.3154ZM527.389 86.8722C527.389 83.955 527.902 81.564 528.877 79.657L527.097 78.7464C525.941 81.0061 525.389 83.7287 525.389 86.8722H527.389ZM528.877 79.657C529.87 77.7157 531.23 76.15 532.962 74.9443L531.819 73.3029C529.81 74.7013 528.235 76.521 527.097 78.7464L528.877 79.657ZM532.962 74.9443C534.728 73.7144 536.776 72.7772 539.116 72.1411L538.591 70.2112C536.054 70.9008 533.793 71.9286 531.819 73.3029L532.962 74.9443ZM539.124 72.1387C541.497 71.4708 544.038 71.0194 546.751 70.7876L546.581 68.7948C543.754 69.0364 541.087 69.5083 538.582 70.2136L539.124 72.1387ZM546.757 70.787C549.869 70.5019 552.393 70.2035 554.319 69.8905L553.998 67.9164C552.137 68.2188 549.665 68.5123 546.575 68.7954L546.757 70.787ZM554.331 69.8884C556.266 69.5498 557.814 69.058 558.848 68.3398L557.708 66.6971C557.037 67.1626 555.839 67.5942 553.986 67.9184L554.331 69.8884ZM558.853 68.3367C560.008 67.5253 560.592 66.3493 560.592 64.9261H558.592C558.592 65.7283 558.3 66.2806 557.703 66.7003L558.853 68.3367ZM560.592 64.9261V64.7486H558.592V64.9261H560.592ZM560.592 64.7486C560.592 62.6682 559.86 60.9509 558.331 59.739L557.089 61.3065C558.069 62.0832 558.592 63.1832 558.592 64.7486H560.592ZM558.331 59.739C556.849 58.5644 554.913 58.0312 552.632 58.0312V60.0312C554.612 60.0312 556.062 60.4924 557.089 61.3065L558.331 59.739ZM552.632 58.0312C550.197 58.0312 548.127 58.5583 546.512 59.7081L547.672 61.3374C548.85 60.4985 550.474 60.0312 552.632 60.0312V58.0312ZM546.512 59.7081C544.902 60.854 543.88 62.4473 543.451 64.4307L545.406 64.8534C545.735 63.333 546.488 62.1801 547.672 61.3374L546.512 59.7081ZM544.464 63.6427L528.448 63.0745L528.378 65.0732L544.393 65.6414L544.464 63.6427ZM529.403 64.2153C529.853 61.0637 531.009 58.2639 532.869 55.7983L531.272 54.5937C529.203 57.3365 527.92 60.4553 527.423 63.9324L529.403 64.2153ZM532.868 55.7995C534.738 53.3281 537.314 51.3681 540.634 49.9352L539.842 48.0989C536.25 49.6489 533.38 51.8083 531.273 54.5926L532.868 55.7995ZM540.637 49.9339C543.961 48.4868 547.997 47.7443 552.774 47.7443V45.7443C547.797 45.7443 543.476 46.517 539.839 48.1002L540.637 49.9339ZM552.774 47.7443C556.175 47.7443 559.29 48.1492 562.126 48.9496L562.669 47.0248C559.634 46.168 556.333 45.7443 552.774 45.7443V47.7443ZM562.133 48.9516C564.97 49.7294 567.415 50.8662 569.485 52.3509L570.651 50.7258C568.364 49.0855 565.696 47.8549 562.662 47.0228L562.133 48.9516ZM569.491 52.3551C571.546 53.8075 573.119 55.5834 574.226 57.6859L575.995 56.7544C574.735 54.3588 572.945 52.3469 570.645 50.7216L569.491 52.3551ZM574.229 57.6932C575.349 59.7786 575.922 62.181 575.922 64.9261H577.922C577.922 61.8948 577.287 59.1599 575.992 56.7472L574.229 57.6932ZM575.922 64.9261V102H577.922V64.9261H575.922ZM576.922 101H560.586V103H576.922V101ZM561.586 102V94.4006H559.586V102H561.586ZM560.586 93.4006H560.16V95.4006H560.586V93.4006ZM559.275 93.9353C558.361 95.6737 557.198 97.1329 555.787 98.3238L557.076 99.8524C558.695 98.4864 560.018 96.8206 561.045 94.8658L559.275 93.9353ZM555.781 98.3288C554.4 99.5118 552.759 100.408 550.841 101.01L551.44 102.919C553.594 102.242 555.479 101.221 557.082 99.8473L555.781 98.3288ZM550.838 101.011C548.94 101.614 546.772 101.923 544.322 101.923V103.923C546.938 103.923 549.316 103.593 551.443 102.918L550.838 101.011ZM549.684 92.5597C551.693 92.5597 553.532 92.1518 555.18 91.3149L554.274 89.5317C552.939 90.21 551.416 90.5597 549.684 90.5597V92.5597ZM555.174 91.3177C556.833 90.4881 558.175 89.3354 559.177 87.8598L557.522 86.7368C556.724 87.9127 555.651 88.8433 554.28 89.5289L555.174 91.3177ZM559.181 87.853C560.201 86.3238 560.699 84.5643 560.699 82.6108H558.699C558.699 84.2085 558.297 85.574 557.517 86.7436L559.181 87.853ZM560.699 82.6108V77.4261H558.699V82.6108H560.699ZM559.235 76.5403C558.808 76.7635 558.267 76.9783 557.6 77.1785L558.175 79.0942C558.928 78.8683 559.594 78.6096 560.163 78.312L559.235 76.5403ZM557.591 77.1813C556.933 77.3856 556.2 77.5805 555.392 77.7652L555.838 79.7149C556.687 79.5208 557.469 79.3132 558.184 79.0914L557.591 77.1813ZM555.392 77.7652C554.585 77.9496 553.754 78.1113 552.898 78.2501L553.218 80.2243C554.114 80.079 554.987 79.9093 555.838 79.7149L555.392 77.7652ZM552.898 78.2501C552.026 78.3914 551.191 78.5209 550.391 78.6385L550.682 80.6172C551.492 80.4981 552.338 80.3671 553.218 80.2243L552.898 78.2501ZM550.379 78.6403C548.678 78.9114 547.187 79.336 545.921 79.93L546.771 81.7405C547.826 81.2454 549.128 80.8651 550.694 80.6154L550.379 78.6403ZM545.914 79.9334C544.651 80.5388 543.63 81.3518 542.9 82.391L544.537 83.5409C545.037 82.8281 545.769 82.2207 546.778 81.737L545.914 79.9334ZM542.897 82.3955C542.173 83.4381 541.831 84.662 541.831 86.0199H543.831C543.831 85.0104 544.08 84.1982 544.54 83.5363L542.897 82.3955ZM541.831 86.0199C541.831 88.0884 542.584 89.7805 544.153 90.9428L545.343 89.3356C544.356 88.6039 543.831 87.5499 543.831 86.0199H541.831ZM544.16 90.9479C545.67 92.0459 547.535 92.5597 549.684 92.5597V90.5597C547.857 90.5597 546.431 90.1264 545.336 89.3305L544.16 90.9479ZM599.649 121.425L599.285 122.356L599.285 122.356L599.649 121.425ZM590.949 115.494L590.183 116.137L590.183 116.137L590.949 115.494ZM587.149 106.972L587.093 105.973L586.014 106.034L586.158 107.105L587.149 106.972ZM603.591 106.048L604.554 105.782L604.339 105.005L603.534 105.05L603.591 106.048ZM605.295 108.96L604.588 109.667L604.598 109.677L605.295 108.96ZM608.598 110.878L608.281 111.827L608.286 111.828L608.598 110.878ZM620.636 109.422L620.047 108.613L620.036 108.622L620.636 109.422ZM623.512 92.483H624.512V91.483H623.512V92.483ZM622.909 92.483V91.483H622.237L621.983 92.1048L622.909 92.483ZM619.784 96.9929L620.472 97.7182L620.472 97.7182L619.784 96.9929ZM614.564 100.118L614.222 99.1781L614.218 99.1794L614.564 100.118ZM596.524 98.4844L596.03 99.3538L596.037 99.3579L596.524 98.4844ZM588.605 89.8196L587.71 90.2668L587.714 90.2733L588.605 89.8196ZM588.711 58.9247L589.608 59.3678L589.609 59.3658L588.711 58.9247ZM596.701 49.7273L596.187 48.8698L596.184 48.8714L596.701 49.7273ZM614.741 48.2358L614.302 49.1344L614.315 49.1404L614.741 48.2358ZM619.819 52L619.062 52.6527L619.062 52.6527L619.819 52ZM622.838 56.794L621.914 57.1768L622.17 57.794H622.838V56.794ZM623.335 56.794V57.794H624.335V56.794H623.335ZM623.335 47.4545V46.4545H622.335V47.4545H623.335ZM640.629 47.4545H641.629V46.4545H640.629V47.4545ZM627.419 121.105L627.054 120.174L627.049 120.176L627.419 121.105ZM622.341 82.1491L623.273 82.5095L623.273 82.5095L622.341 82.1491ZM622.341 67.0213L621.4 67.3622L621.405 67.3747L622.341 67.0213ZM618.896 62.0497L618.282 62.8391L618.288 62.8437L618.896 62.0497ZM608.029 62.0852L608.651 62.8685L608.029 62.0852ZM604.62 67.0923L603.68 66.7514L603.678 66.7573L604.62 67.0923ZM608.029 86.9432L607.425 87.7401L607.432 87.7447L608.029 86.9432ZM612.966 122.591C607.869 122.591 603.56 121.881 600.013 120.493L599.285 122.356C603.123 123.857 607.693 124.591 612.966 124.591V122.591ZM600.013 120.493C596.443 119.097 593.693 117.208 591.714 114.851L590.183 116.137C592.418 118.799 595.468 120.864 599.285 122.356L600.013 120.493ZM591.714 114.851C589.726 112.483 588.54 109.818 588.14 106.838L586.158 107.105C586.61 110.47 587.957 113.486 590.183 116.137L591.714 114.851ZM587.205 107.97L603.647 107.047L603.534 105.05L587.093 105.973L587.205 107.97ZM602.627 106.315C602.981 107.597 603.639 108.718 604.588 109.667L606.002 108.253C605.294 107.545 604.815 106.725 604.554 105.782L602.627 106.315ZM604.598 109.677C605.577 110.629 606.817 111.338 608.281 111.827L608.914 109.929C607.679 109.518 606.717 108.948 605.992 108.243L604.598 109.677ZM608.286 111.828C609.783 112.319 611.503 112.553 613.427 112.553V110.553C611.658 110.553 610.158 110.337 608.909 109.928L608.286 111.828ZM613.427 112.553C616.505 112.553 619.132 111.8 621.236 110.222L620.036 108.622C618.352 109.885 616.174 110.553 613.427 110.553V112.553ZM621.225 110.23C623.507 108.568 624.512 105.735 624.512 102.071H622.512C622.512 105.415 621.6 107.483 620.047 108.614L621.225 110.23ZM624.512 102.071V92.483H622.512V102.071H624.512ZM623.512 91.483H622.909V93.483H623.512V91.483ZM621.983 92.1048C621.353 93.6466 620.396 95.0334 619.095 96.2676L620.472 97.7182C621.965 96.3009 623.091 94.6811 623.834 92.8611L621.983 92.1048ZM619.095 96.2676C617.812 97.4856 616.195 98.4604 614.222 99.1781L614.905 101.058C617.098 100.26 618.962 99.1517 620.472 97.7182L619.095 96.2676ZM614.218 99.1794C612.29 99.8885 610.044 100.254 607.461 100.254V102.254C610.229 102.254 612.717 101.862 614.909 101.056L614.218 99.1794ZM607.461 100.254C603.646 100.254 600.169 99.3704 597.01 97.6108L596.037 99.3579C599.508 101.292 603.322 102.254 607.461 102.254V100.254ZM597.018 97.615C593.923 95.856 591.41 93.126 589.496 89.3659L587.714 90.2733C589.777 94.3257 592.543 97.3722 596.03 99.3538L597.018 97.615ZM589.499 89.3724C587.626 85.626 586.657 80.7392 586.657 74.6562H584.657C584.657 80.9313 585.654 86.1534 587.71 90.2668L589.499 89.3724ZM586.657 74.6562C586.657 68.3857 587.661 63.3067 589.608 59.3678L587.815 58.4816C585.69 62.7813 584.657 68.1901 584.657 74.6562H586.657ZM589.609 59.3658C591.577 55.3598 594.122 52.4544 597.219 50.5831L596.184 48.8714C592.699 50.9774 589.917 54.2037 587.814 58.4837L589.609 59.3658ZM597.216 50.5848C600.377 48.688 603.763 47.7443 607.39 47.7443V45.7443C603.395 45.7443 599.654 46.7893 596.187 48.8698L597.216 50.5848ZM607.39 47.7443C610.142 47.7443 612.434 48.222 614.302 49.1344L615.18 47.3372C612.976 46.2609 610.368 45.7443 607.39 45.7443V47.7443ZM614.315 49.1404C616.263 50.0585 617.838 51.2323 619.062 52.6527L620.577 51.3473C619.149 49.69 617.339 48.3544 615.167 47.3312L614.315 49.1404ZM619.062 52.6527C620.327 54.1215 621.273 55.6299 621.914 57.1768L623.762 56.4113C623.029 54.6438 621.963 52.9562 620.577 51.3473L619.062 52.6527ZM622.838 57.794H623.335V55.794H622.838V57.794ZM624.335 56.794V47.4545H622.335V56.794H624.335ZM623.335 48.4545H640.629V46.4545H623.335V48.4545ZM639.629 47.4545V102.213H641.629V47.4545H639.629ZM639.629 102.213C639.629 106.656 638.516 110.333 636.342 113.306L637.956 114.487C640.422 111.114 641.629 107.004 641.629 102.213H639.629ZM636.342 113.306C634.149 116.305 631.069 118.6 627.054 120.174L627.784 122.036C632.102 120.343 635.509 117.833 637.956 114.487L636.342 113.306ZM627.049 120.176C623.023 121.777 618.335 122.591 612.966 122.591V124.591C618.534 124.591 623.481 123.747 627.788 122.034L627.049 120.176ZM613.498 89.6122C615.791 89.6122 617.807 89.003 619.494 87.7447L618.298 86.1417C617.002 87.1087 615.42 87.6122 613.498 87.6122V89.6122ZM619.494 87.7447C621.164 86.4987 622.414 84.733 623.273 82.5095L621.408 81.7887C620.657 83.7319 619.611 85.1623 618.298 86.1417L619.494 87.7447ZM623.273 82.5095C624.134 80.2822 624.548 77.6559 624.548 74.6562H622.548C622.548 77.4805 622.157 79.8494 621.408 81.7887L623.273 82.5095ZM624.548 74.6562C624.548 71.6105 624.134 68.9397 623.276 66.6679L621.405 67.3747C622.157 69.3643 622.548 71.7834 622.548 74.6562H624.548ZM623.281 66.6804C622.447 64.3828 621.199 62.5535 619.504 61.2557L618.288 62.8437C619.623 63.866 620.671 65.3511 621.4 67.3622L623.281 66.6804ZM619.51 61.2604C617.823 59.9481 615.801 59.3097 613.498 59.3097V61.3097C615.41 61.3097 616.986 61.8313 618.282 62.8391L619.51 61.2604ZM613.498 59.3097C611.149 59.3097 609.099 59.9596 607.408 61.3019L608.651 62.8685C609.943 61.8434 611.538 61.3097 613.498 61.3097V59.3097ZM607.408 61.3019C605.744 62.6223 604.512 64.4586 603.68 66.7514L605.56 67.4332C606.292 65.4173 607.332 63.9156 608.651 62.8685L607.408 61.3019ZM603.678 66.7573C602.873 69.0215 602.484 71.6614 602.484 74.6562H604.484C604.484 71.8273 604.852 69.4246 605.563 67.4273L603.678 66.7573ZM602.484 74.6562C602.484 77.653 602.885 80.276 603.72 82.5003L605.592 81.798C604.864 79.8557 604.484 77.4833 604.484 74.6562H602.484ZM603.72 82.5003C604.553 84.7235 605.778 86.4914 607.425 87.7401L608.634 86.1463C607.345 85.1696 606.321 83.7414 605.592 81.798L603.72 82.5003ZM607.432 87.7447C609.122 89.0059 611.164 89.6122 613.498 89.6122V87.6122C611.524 87.6122 609.92 87.1059 608.627 86.1417L607.432 87.7447ZM662.424 99.6562L661.941 100.532L661.947 100.535L662.424 99.6562ZM652.907 89.9616L652.021 90.4247L652.024 90.4307L652.907 89.9616ZM652.942 60.1676L653.827 60.6346L653.828 60.6325L652.942 60.1676ZM662.353 50.2955L662.854 51.1609L662.858 51.1587L662.353 50.2955ZM687.317 48.5554L687.669 47.6191L687.669 47.6191L687.317 48.5554ZM701.131 62.6889L700.195 63.0393L700.196 63.0414L701.131 62.6889ZM703.085 78.9176V79.9176H704.085V78.9176H703.085ZM655.677 78.9176H654.677V79.9176H655.677V78.9176ZM655.677 68.8324V67.8324H654.677V68.8324H655.677ZM686.927 68.8324V69.8324H687.94L687.927 68.8196L686.927 68.8324ZM682.097 60.5227L681.606 61.3935L681.614 61.3982L681.622 61.4027L682.097 60.5227ZM671.799 60.5938L672.284 61.4686L672.294 61.4628L671.799 60.5938ZM668.141 64.1094L668.994 64.632L668.998 64.6259L668.141 64.1094ZM666.721 69.1165L665.721 69.0912L665.721 69.1038V69.1165H666.721ZM668.035 85.2386L667.148 85.7008L667.151 85.7059L668.035 85.2386ZM671.763 89.1094L671.266 89.9768L671.266 89.9768L671.763 89.1094ZM681.707 89.8551L682.028 90.802L682.028 90.802L681.707 89.8551ZM684.938 87.973L685.616 88.7086L685.616 88.7086L684.938 87.973ZM686.962 84.919L686.991 83.9195L686.275 83.8987L686.025 84.5699L686.962 84.919ZM702.907 85.3807L703.89 85.563L704.103 84.4149L702.936 84.3811L702.907 85.3807ZM698.539 94.7202L697.776 94.0733L697.776 94.0739L698.539 94.7202ZM689.768 100.864L690.138 101.793L690.143 101.79L689.768 100.864ZM677.197 102.03C671.623 102.03 666.87 100.932 662.901 98.7774L661.947 100.535C666.264 102.879 671.359 104.03 677.197 104.03V102.03ZM662.907 98.7807C658.959 96.6026 655.925 93.513 653.79 89.4926L652.024 90.4307C654.339 94.791 657.65 98.1645 661.941 100.532L662.907 98.7807ZM653.793 89.4986C651.681 85.4556 650.604 80.6143 650.604 74.9403H648.604C648.604 80.8668 649.73 86.0397 652.021 90.4247L653.793 89.4986ZM650.604 74.9403C650.604 69.439 651.69 64.6806 653.827 60.6346L652.058 59.7006C649.744 64.0827 648.604 69.1727 648.604 74.9403H650.604ZM653.828 60.6325C655.968 56.5578 658.973 53.4078 662.854 51.1609L661.852 49.43C657.636 51.8706 654.368 55.302 652.057 59.7027L653.828 60.6325ZM662.858 51.1587C666.728 48.8951 671.318 47.7443 676.664 47.7443V45.7443C671.025 45.7443 666.074 46.9609 661.848 49.4322L662.858 51.1587ZM676.664 47.7443C680.442 47.7443 683.872 48.3315 686.966 49.4917L687.669 47.6191C684.323 46.3645 680.651 45.7443 676.664 45.7443V47.7443ZM686.966 49.4917C690.055 50.6501 692.713 52.3597 694.952 54.6212L696.373 53.2141C693.925 50.7406 691.019 48.8755 687.669 47.6191L686.966 49.4917ZM694.952 54.6212C697.185 56.8771 698.936 59.6762 700.195 63.0393L702.068 62.3385C700.722 58.7414 698.827 55.6929 696.373 53.2141L694.952 54.6212ZM700.196 63.0414C701.447 66.3642 702.085 70.2065 702.085 74.5852H704.085C704.085 70.0151 703.42 65.9265 702.067 62.3364L700.196 63.0414ZM702.085 74.5852V78.9176H704.085V74.5852H702.085ZM703.085 77.9176H655.677V79.9176H703.085V77.9176ZM656.677 78.9176V68.8324H654.677V78.9176H656.677ZM655.677 69.8324H686.927V67.8324H655.677V69.8324ZM687.927 68.8196C687.901 66.8167 687.424 64.9973 686.474 63.3881L684.752 64.4046C685.507 65.6836 685.905 67.1549 685.927 68.8452L687.927 68.8196ZM686.474 63.3881C685.528 61.7854 684.222 60.5331 682.572 59.6427L681.622 61.4027C682.955 62.1222 683.993 63.119 684.752 64.4046L686.474 63.3881ZM682.589 59.6519C680.951 58.7275 679.085 58.2798 677.019 58.2798V60.2798C678.789 60.2798 680.308 60.6607 681.606 61.3935L682.589 59.6519ZM677.019 58.2798C674.922 58.2798 673.008 58.7548 671.304 59.7247L672.294 61.4628C673.668 60.6808 675.234 60.2798 677.019 60.2798V58.2798ZM671.315 59.719C669.624 60.6552 668.276 61.9499 667.285 63.5929L668.998 64.6259C669.806 63.2859 670.896 62.2369 672.284 61.4685L671.315 59.719ZM667.289 63.5868C666.289 65.2174 665.773 67.0608 665.721 69.0912L667.721 69.1418C667.764 67.4316 668.194 65.9369 668.994 64.6319L667.289 63.5868ZM665.721 69.1165V79.3793H667.721V69.1165H665.721ZM665.721 79.3793C665.721 81.7376 666.186 83.8543 667.148 85.7008L668.922 84.7765C668.132 83.2612 667.721 81.4717 667.721 79.3793H665.721ZM667.151 85.7059C668.114 87.5286 669.49 88.9584 671.266 89.9768L672.261 88.2419C670.817 87.4137 669.707 86.263 668.919 84.7713L667.151 85.7059ZM671.266 89.9768C673.055 91.0028 675.151 91.4943 677.516 91.4943V89.4943C675.431 89.4943 673.692 89.0626 672.261 88.2419L671.266 89.9768ZM677.516 91.4943C679.147 91.4943 680.655 91.2685 682.028 90.802L681.385 88.9082C680.249 89.294 678.963 89.4943 677.516 89.4943V91.4943ZM682.028 90.802C683.404 90.3348 684.605 89.6393 685.616 88.7086L684.261 87.2375C683.472 87.9639 682.519 88.5232 681.385 88.9082L682.028 90.802ZM685.616 88.7086C686.637 87.7676 687.398 86.6149 687.899 85.2681L686.025 84.5699C685.627 85.638 685.038 86.5212 684.261 87.2375L685.616 88.7086ZM686.933 85.9186L702.878 86.3803L702.936 84.3811L686.991 83.9195L686.933 85.9186ZM701.924 85.1984C701.291 88.6099 699.907 91.5609 697.776 94.0733L699.302 95.367C701.669 92.5764 703.197 89.3011 703.89 85.563L701.924 85.1984ZM697.776 94.0739C695.669 96.5625 692.885 98.5215 689.392 99.9368L690.143 101.79C693.895 100.27 696.959 98.1336 699.302 95.3664L697.776 94.0739ZM689.397 99.9347C685.916 101.323 681.856 102.03 677.197 102.03V104.03C682.055 104.03 686.375 103.293 690.138 101.793L689.397 99.9347Z" fill="url(#paint2_linear_1_6)"/>
</g>
<defs>
<filter id="filter0_dd_1_6" x="0.323006" y="-16.5216" width="753.162" height="196.113" filterUnits="userSpaceOnUse" color-interpolation-filters="sRGB">
<feFlood flood-opacity="0" result="BackgroundImageFix"/>
<feColorMatrix in="SourceAlpha" type="matrix" values="0 0 0 0 0 0 0 0 0 0 0 0 0 0 0 0 0 0 127 0" result="hardAlpha"/>
<feOffset dy="5.6"/>
<feGaussianBlur stdDeviation="25.2"/>
<feComposite in2="hardAlpha" operator="out"/>
<feColorMatrix type="matrix" values="0 0 0 0 0 0 0 0 0 0 0 0 0 0 0 0 0 0 0.5 0"/>
<feBlend mode="normal" in2="BackgroundImageFix" result="effect1_dropShadow_1_6"/>
<feColorMatrix in="SourceAlpha" type="matrix" values="0 0 0 0 0 0 0 0 0 0 0 0 0 0 0 0 0 0 127 0" result="hardAlpha"/>
<feOffset dy="4.24"/>
<feGaussianBlur stdDeviation="3.43"/>
<feComposite in2="hardAlpha" operator="out"/>
<feColorMatrix type="matrix" values="0 0 0 0 0 0 0 0 0 0 0 0 0 0 0 0 0 0 1 0"/>
<feBlend mode="normal" in2="effect1_dropShadow_1_6" result="effect2_dropShadow_1_6"/>
<feBlend mode="normal" in="SourceGraphic" in2="effect2_dropShadow_1_6" result="shape"/>
</filter>
<linearGradient id="paint0_linear_1_6" x1="380.5" y1="5" x2="380.5" y2="137" gradientUnits="userSpaceOnUse">
<stop offset="0.218674" stop-color="white"/>
<stop offset="0.506459" stop-color="#D2D2D2"/>
<stop offset="0.677083"/>
<stop offset="0.84375" stop-color="#E4E4E4"/>
</linearGradient>
<linearGradient id="paint1_linear_1_6" x1="381" y1="111" x2="381" y2="42.5" gradientUnits="userSpaceOnUse">
<stop offset="0.0721588" stop-color="#969696"/>
<stop offset="0.498459" stop-color="#414141"/>
<stop offset="0.498559" stop-color="#404040"/>
<stop offset="0.557092" stop-color="#3F3F3F"/>
<stop offset="0.557192" stop-color="#3E3E3E"/>
<stop offset="0.557292" stop-color="#4F4F4F" stop-opacity="0.481096"/>
<stop offset="1" stop-color="#ECECEC"/>
</linearGradient>
<linearGradient id="paint2_linear_1_6" x1="380.5" y1="5" x2="380.5" y2="137" gradientUnits="userSpaceOnUse">
<stop offset="0.171594" stop-color="white"/>
<stop offset="0.446506" stop-color="#D2D2D2"/>
<stop offset="0.677083"/>
<stop offset="0.875" stop-color="#E4E4E4" stop-opacity="0"/>
</linearGradient>
</defs>
</svg>
